<?xml version="1.0" encoding="utf-8" standalone="no"?>
<!DOCTYPE svg PUBLIC "-//W3C//DTD SVG 1.1//EN"
  "http://www.w3.org/Graphics/SVG/1.1/DTD/svg11.dtd">
<!-- Created with matplotlib (http://matplotlib.org/) -->
<svg height="725.95828pt" version="1.1" viewBox="0 0 783.957862 725.95828" width="783.957862pt" xmlns="http://www.w3.org/2000/svg" xmlns:xlink="http://www.w3.org/1999/xlink">
 <defs>
  <style type="text/css">
*{stroke-linecap:butt;stroke-linejoin:round;}
  </style>
 </defs>
 <g id="figure_1">
  <g id="patch_1">
   <path d="M 0 725.95828 
L 783.957862 725.95828 
L 783.957862 0 
L 0 0 
z
" style="fill:#ffffff;"/>
  </g>
  <g id="axes_1">
   <g id="patch_2">
    <path d="M 95.70718 587.355232 
Q 122.597619 500.520089 149.818788 412.616948 
" style="fill:none;stroke:#000000;stroke-linecap:round;"/>
    <path d="M 97.411702 585.575994 
L 95.70718 587.355232 
L 95.306502 584.924072 
" style="fill:none;stroke:#000000;stroke-linecap:round;"/>
   </g>
   <g id="text_1">
    <g id="patch_3">
     <path d="M 63.804555 619.079381 
L 116.709388 619.079381 
L 116.709388 590.830929 
L 63.804555 590.830929 
z
" style="fill:#40a0e6;stroke:#000000;stroke-linejoin:miter;"/>
    </g>
    <!-- gini = 0.067 -->
    <defs>
     <path d="M 45.40625 27.984375 
Q 45.40625 37.75 41.375 43.109375 
Q 37.359375 48.484375 30.078125 48.484375 
Q 22.859375 48.484375 18.828125 43.109375 
Q 14.796875 37.75 14.796875 27.984375 
Q 14.796875 18.265625 18.828125 12.890625 
Q 22.859375 7.515625 30.078125 7.515625 
Q 37.359375 7.515625 41.375 12.890625 
Q 45.40625 18.265625 45.40625 27.984375 
z
M 54.390625 6.78125 
Q 54.390625 -7.171875 48.1875 -13.984375 
Q 42 -20.796875 29.203125 -20.796875 
Q 24.46875 -20.796875 20.265625 -20.09375 
Q 16.0625 -19.390625 12.109375 -17.921875 
L 12.109375 -9.1875 
Q 16.0625 -11.328125 19.921875 -12.34375 
Q 23.78125 -13.375 27.78125 -13.375 
Q 36.625 -13.375 41.015625 -8.765625 
Q 45.40625 -4.15625 45.40625 5.171875 
L 45.40625 9.625 
Q 42.625 4.78125 38.28125 2.390625 
Q 33.9375 0 27.875 0 
Q 17.828125 0 11.671875 7.65625 
Q 5.515625 15.328125 5.515625 27.984375 
Q 5.515625 40.671875 11.671875 48.328125 
Q 17.828125 56 27.875 56 
Q 33.9375 56 38.28125 53.609375 
Q 42.625 51.21875 45.40625 46.390625 
L 45.40625 54.6875 
L 54.390625 54.6875 
z
" id="DejaVuSans-67"/>
     <path d="M 9.421875 54.6875 
L 18.40625 54.6875 
L 18.40625 0 
L 9.421875 0 
z
M 9.421875 75.984375 
L 18.40625 75.984375 
L 18.40625 64.59375 
L 9.421875 64.59375 
z
" id="DejaVuSans-69"/>
     <path d="M 54.890625 33.015625 
L 54.890625 0 
L 45.90625 0 
L 45.90625 32.71875 
Q 45.90625 40.484375 42.875 44.328125 
Q 39.84375 48.1875 33.796875 48.1875 
Q 26.515625 48.1875 22.3125 43.546875 
Q 18.109375 38.921875 18.109375 30.90625 
L 18.109375 0 
L 9.078125 0 
L 9.078125 54.6875 
L 18.109375 54.6875 
L 18.109375 46.1875 
Q 21.34375 51.125 25.703125 53.5625 
Q 30.078125 56 35.796875 56 
Q 45.21875 56 50.046875 50.171875 
Q 54.890625 44.34375 54.890625 33.015625 
z
" id="DejaVuSans-6e"/>
     <path id="DejaVuSans-20"/>
     <path d="M 10.59375 45.40625 
L 73.1875 45.40625 
L 73.1875 37.203125 
L 10.59375 37.203125 
z
M 10.59375 25.484375 
L 73.1875 25.484375 
L 73.1875 17.1875 
L 10.59375 17.1875 
z
" id="DejaVuSans-3d"/>
     <path d="M 31.78125 66.40625 
Q 24.171875 66.40625 20.328125 58.90625 
Q 16.5 51.421875 16.5 36.375 
Q 16.5 21.390625 20.328125 13.890625 
Q 24.171875 6.390625 31.78125 6.390625 
Q 39.453125 6.390625 43.28125 13.890625 
Q 47.125 21.390625 47.125 36.375 
Q 47.125 51.421875 43.28125 58.90625 
Q 39.453125 66.40625 31.78125 66.40625 
z
M 31.78125 74.21875 
Q 44.046875 74.21875 50.515625 64.515625 
Q 56.984375 54.828125 56.984375 36.375 
Q 56.984375 17.96875 50.515625 8.265625 
Q 44.046875 -1.421875 31.78125 -1.421875 
Q 19.53125 -1.421875 13.0625 8.265625 
Q 6.59375 17.96875 6.59375 36.375 
Q 6.59375 54.828125 13.0625 64.515625 
Q 19.53125 74.21875 31.78125 74.21875 
z
" id="DejaVuSans-30"/>
     <path d="M 10.6875 12.40625 
L 21 12.40625 
L 21 0 
L 10.6875 0 
z
" id="DejaVuSans-2e"/>
     <path d="M 33.015625 40.375 
Q 26.375 40.375 22.484375 35.828125 
Q 18.609375 31.296875 18.609375 23.390625 
Q 18.609375 15.53125 22.484375 10.953125 
Q 26.375 6.390625 33.015625 6.390625 
Q 39.65625 6.390625 43.53125 10.953125 
Q 47.40625 15.53125 47.40625 23.390625 
Q 47.40625 31.296875 43.53125 35.828125 
Q 39.65625 40.375 33.015625 40.375 
z
M 52.59375 71.296875 
L 52.59375 62.3125 
Q 48.875 64.0625 45.09375 64.984375 
Q 41.3125 65.921875 37.59375 65.921875 
Q 27.828125 65.921875 22.671875 59.328125 
Q 17.53125 52.734375 16.796875 39.40625 
Q 19.671875 43.65625 24.015625 45.921875 
Q 28.375 48.1875 33.59375 48.1875 
Q 44.578125 48.1875 50.953125 41.515625 
Q 57.328125 34.859375 57.328125 23.390625 
Q 57.328125 12.15625 50.6875 5.359375 
Q 44.046875 -1.421875 33.015625 -1.421875 
Q 20.359375 -1.421875 13.671875 8.265625 
Q 6.984375 17.96875 6.984375 36.375 
Q 6.984375 53.65625 15.1875 63.9375 
Q 23.390625 74.21875 37.203125 74.21875 
Q 40.921875 74.21875 44.703125 73.484375 
Q 48.484375 72.75 52.59375 71.296875 
z
" id="DejaVuSans-36"/>
     <path d="M 8.203125 72.90625 
L 55.078125 72.90625 
L 55.078125 68.703125 
L 28.609375 0 
L 18.3125 0 
L 43.21875 64.59375 
L 8.203125 64.59375 
z
" id="DejaVuSans-37"/>
    </defs>
    <g transform="translate(73.285758 597.221176)scale(0.055096 -0.055096)">
     <use xlink:href="#DejaVuSans-67"/>
     <use x="63.476562" xlink:href="#DejaVuSans-69"/>
     <use x="91.259766" xlink:href="#DejaVuSans-6e"/>
     <use x="154.638672" xlink:href="#DejaVuSans-69"/>
     <use x="182.421875" xlink:href="#DejaVuSans-20"/>
     <use x="214.208984" xlink:href="#DejaVuSans-3d"/>
     <use x="297.998047" xlink:href="#DejaVuSans-20"/>
     <use x="329.785156" xlink:href="#DejaVuSans-30"/>
     <use x="393.408203" xlink:href="#DejaVuSans-2e"/>
     <use x="425.195312" xlink:href="#DejaVuSans-30"/>
     <use x="488.818359" xlink:href="#DejaVuSans-36"/>
     <use x="552.441406" xlink:href="#DejaVuSans-37"/>
    </g>
    <!-- samples = 290 -->
    <defs>
     <path d="M 44.28125 53.078125 
L 44.28125 44.578125 
Q 40.484375 46.53125 36.375 47.5 
Q 32.28125 48.484375 27.875 48.484375 
Q 21.1875 48.484375 17.84375 46.4375 
Q 14.5 44.390625 14.5 40.28125 
Q 14.5 37.15625 16.890625 35.375 
Q 19.28125 33.59375 26.515625 31.984375 
L 29.59375 31.296875 
Q 39.15625 29.25 43.1875 25.515625 
Q 47.21875 21.78125 47.21875 15.09375 
Q 47.21875 7.46875 41.1875 3.015625 
Q 35.15625 -1.421875 24.609375 -1.421875 
Q 20.21875 -1.421875 15.453125 -0.5625 
Q 10.6875 0.296875 5.421875 2 
L 5.421875 11.28125 
Q 10.40625 8.6875 15.234375 7.390625 
Q 20.0625 6.109375 24.8125 6.109375 
Q 31.15625 6.109375 34.5625 8.28125 
Q 37.984375 10.453125 37.984375 14.40625 
Q 37.984375 18.0625 35.515625 20.015625 
Q 33.0625 21.96875 24.703125 23.78125 
L 21.578125 24.515625 
Q 13.234375 26.265625 9.515625 29.90625 
Q 5.8125 33.546875 5.8125 39.890625 
Q 5.8125 47.609375 11.28125 51.796875 
Q 16.75 56 26.8125 56 
Q 31.78125 56 36.171875 55.265625 
Q 40.578125 54.546875 44.28125 53.078125 
z
" id="DejaVuSans-73"/>
     <path d="M 34.28125 27.484375 
Q 23.390625 27.484375 19.1875 25 
Q 14.984375 22.515625 14.984375 16.5 
Q 14.984375 11.71875 18.140625 8.90625 
Q 21.296875 6.109375 26.703125 6.109375 
Q 34.1875 6.109375 38.703125 11.40625 
Q 43.21875 16.703125 43.21875 25.484375 
L 43.21875 27.484375 
z
M 52.203125 31.203125 
L 52.203125 0 
L 43.21875 0 
L 43.21875 8.296875 
Q 40.140625 3.328125 35.546875 0.953125 
Q 30.953125 -1.421875 24.3125 -1.421875 
Q 15.921875 -1.421875 10.953125 3.296875 
Q 6 8.015625 6 15.921875 
Q 6 25.140625 12.171875 29.828125 
Q 18.359375 34.515625 30.609375 34.515625 
L 43.21875 34.515625 
L 43.21875 35.40625 
Q 43.21875 41.609375 39.140625 45 
Q 35.0625 48.390625 27.6875 48.390625 
Q 23 48.390625 18.546875 47.265625 
Q 14.109375 46.140625 10.015625 43.890625 
L 10.015625 52.203125 
Q 14.9375 54.109375 19.578125 55.046875 
Q 24.21875 56 28.609375 56 
Q 40.484375 56 46.34375 49.84375 
Q 52.203125 43.703125 52.203125 31.203125 
z
" id="DejaVuSans-61"/>
     <path d="M 52 44.1875 
Q 55.375 50.25 60.0625 53.125 
Q 64.75 56 71.09375 56 
Q 79.640625 56 84.28125 50.015625 
Q 88.921875 44.046875 88.921875 33.015625 
L 88.921875 0 
L 79.890625 0 
L 79.890625 32.71875 
Q 79.890625 40.578125 77.09375 44.375 
Q 74.3125 48.1875 68.609375 48.1875 
Q 61.625 48.1875 57.5625 43.546875 
Q 53.515625 38.921875 53.515625 30.90625 
L 53.515625 0 
L 44.484375 0 
L 44.484375 32.71875 
Q 44.484375 40.625 41.703125 44.40625 
Q 38.921875 48.1875 33.109375 48.1875 
Q 26.21875 48.1875 22.15625 43.53125 
Q 18.109375 38.875 18.109375 30.90625 
L 18.109375 0 
L 9.078125 0 
L 9.078125 54.6875 
L 18.109375 54.6875 
L 18.109375 46.1875 
Q 21.1875 51.21875 25.484375 53.609375 
Q 29.78125 56 35.6875 56 
Q 41.65625 56 45.828125 52.96875 
Q 50 49.953125 52 44.1875 
z
" id="DejaVuSans-6d"/>
     <path d="M 18.109375 8.203125 
L 18.109375 -20.796875 
L 9.078125 -20.796875 
L 9.078125 54.6875 
L 18.109375 54.6875 
L 18.109375 46.390625 
Q 20.953125 51.265625 25.265625 53.625 
Q 29.59375 56 35.59375 56 
Q 45.5625 56 51.78125 48.09375 
Q 58.015625 40.1875 58.015625 27.296875 
Q 58.015625 14.40625 51.78125 6.484375 
Q 45.5625 -1.421875 35.59375 -1.421875 
Q 29.59375 -1.421875 25.265625 0.953125 
Q 20.953125 3.328125 18.109375 8.203125 
z
M 48.6875 27.296875 
Q 48.6875 37.203125 44.609375 42.84375 
Q 40.53125 48.484375 33.40625 48.484375 
Q 26.265625 48.484375 22.1875 42.84375 
Q 18.109375 37.203125 18.109375 27.296875 
Q 18.109375 17.390625 22.1875 11.75 
Q 26.265625 6.109375 33.40625 6.109375 
Q 40.53125 6.109375 44.609375 11.75 
Q 48.6875 17.390625 48.6875 27.296875 
z
" id="DejaVuSans-70"/>
     <path d="M 9.421875 75.984375 
L 18.40625 75.984375 
L 18.40625 0 
L 9.421875 0 
z
" id="DejaVuSans-6c"/>
     <path d="M 56.203125 29.59375 
L 56.203125 25.203125 
L 14.890625 25.203125 
Q 15.484375 15.921875 20.484375 11.0625 
Q 25.484375 6.203125 34.421875 6.203125 
Q 39.59375 6.203125 44.453125 7.46875 
Q 49.3125 8.734375 54.109375 11.28125 
L 54.109375 2.78125 
Q 49.265625 0.734375 44.1875 -0.34375 
Q 39.109375 -1.421875 33.890625 -1.421875 
Q 20.796875 -1.421875 13.15625 6.1875 
Q 5.515625 13.8125 5.515625 26.8125 
Q 5.515625 40.234375 12.765625 48.109375 
Q 20.015625 56 32.328125 56 
Q 43.359375 56 49.78125 48.890625 
Q 56.203125 41.796875 56.203125 29.59375 
z
M 47.21875 32.234375 
Q 47.125 39.59375 43.09375 43.984375 
Q 39.0625 48.390625 32.421875 48.390625 
Q 24.90625 48.390625 20.390625 44.140625 
Q 15.875 39.890625 15.1875 32.171875 
z
" id="DejaVuSans-65"/>
     <path d="M 19.1875 8.296875 
L 53.609375 8.296875 
L 53.609375 0 
L 7.328125 0 
L 7.328125 8.296875 
Q 12.9375 14.109375 22.625 23.890625 
Q 32.328125 33.6875 34.8125 36.53125 
Q 39.546875 41.84375 41.421875 45.53125 
Q 43.3125 49.21875 43.3125 52.78125 
Q 43.3125 58.59375 39.234375 62.25 
Q 35.15625 65.921875 28.609375 65.921875 
Q 23.96875 65.921875 18.8125 64.3125 
Q 13.671875 62.703125 7.8125 59.421875 
L 7.8125 69.390625 
Q 13.765625 71.78125 18.9375 73 
Q 24.125 74.21875 28.421875 74.21875 
Q 39.75 74.21875 46.484375 68.546875 
Q 53.21875 62.890625 53.21875 53.421875 
Q 53.21875 48.921875 51.53125 44.890625 
Q 49.859375 40.875 45.40625 35.40625 
Q 44.1875 33.984375 37.640625 27.21875 
Q 31.109375 20.453125 19.1875 8.296875 
z
" id="DejaVuSans-32"/>
     <path d="M 10.984375 1.515625 
L 10.984375 10.5 
Q 14.703125 8.734375 18.5 7.8125 
Q 22.3125 6.890625 25.984375 6.890625 
Q 35.75 6.890625 40.890625 13.453125 
Q 46.046875 20.015625 46.78125 33.40625 
Q 43.953125 29.203125 39.59375 26.953125 
Q 35.25 24.703125 29.984375 24.703125 
Q 19.046875 24.703125 12.671875 31.3125 
Q 6.296875 37.9375 6.296875 49.421875 
Q 6.296875 60.640625 12.9375 67.421875 
Q 19.578125 74.21875 30.609375 74.21875 
Q 43.265625 74.21875 49.921875 64.515625 
Q 56.59375 54.828125 56.59375 36.375 
Q 56.59375 19.140625 48.40625 8.859375 
Q 40.234375 -1.421875 26.421875 -1.421875 
Q 22.703125 -1.421875 18.890625 -0.6875 
Q 15.09375 0.046875 10.984375 1.515625 
z
M 30.609375 32.421875 
Q 37.25 32.421875 41.125 36.953125 
Q 45.015625 41.5 45.015625 49.421875 
Q 45.015625 57.28125 41.125 61.84375 
Q 37.25 66.40625 30.609375 66.40625 
Q 23.96875 66.40625 20.09375 61.84375 
Q 16.21875 57.28125 16.21875 49.421875 
Q 16.21875 41.5 20.09375 36.953125 
Q 23.96875 32.421875 30.609375 32.421875 
z
" id="DejaVuSans-39"/>
    </defs>
    <g transform="translate(69.488456 603.390694)scale(0.055096 -0.055096)">
     <use xlink:href="#DejaVuSans-73"/>
     <use x="52.099609" xlink:href="#DejaVuSans-61"/>
     <use x="113.378906" xlink:href="#DejaVuSans-6d"/>
     <use x="210.791016" xlink:href="#DejaVuSans-70"/>
     <use x="274.267578" xlink:href="#DejaVuSans-6c"/>
     <use x="302.050781" xlink:href="#DejaVuSans-65"/>
     <use x="363.574219" xlink:href="#DejaVuSans-73"/>
     <use x="415.673828" xlink:href="#DejaVuSans-20"/>
     <use x="447.460938" xlink:href="#DejaVuSans-3d"/>
     <use x="531.25" xlink:href="#DejaVuSans-20"/>
     <use x="563.037109" xlink:href="#DejaVuSans-32"/>
     <use x="626.660156" xlink:href="#DejaVuSans-39"/>
     <use x="690.283203" xlink:href="#DejaVuSans-30"/>
    </g>
    <!-- value = [10, 280] -->
    <defs>
     <path d="M 2.984375 54.6875 
L 12.5 54.6875 
L 29.59375 8.796875 
L 46.6875 54.6875 
L 56.203125 54.6875 
L 35.6875 0 
L 23.484375 0 
z
" id="DejaVuSans-76"/>
     <path d="M 8.5 21.578125 
L 8.5 54.6875 
L 17.484375 54.6875 
L 17.484375 21.921875 
Q 17.484375 14.15625 20.5 10.265625 
Q 23.53125 6.390625 29.59375 6.390625 
Q 36.859375 6.390625 41.078125 11.03125 
Q 45.3125 15.671875 45.3125 23.6875 
L 45.3125 54.6875 
L 54.296875 54.6875 
L 54.296875 0 
L 45.3125 0 
L 45.3125 8.40625 
Q 42.046875 3.421875 37.71875 1 
Q 33.40625 -1.421875 27.6875 -1.421875 
Q 18.265625 -1.421875 13.375 4.4375 
Q 8.5 10.296875 8.5 21.578125 
z
M 31.109375 56 
z
" id="DejaVuSans-75"/>
     <path d="M 8.59375 75.984375 
L 29.296875 75.984375 
L 29.296875 69 
L 17.578125 69 
L 17.578125 -6.203125 
L 29.296875 -6.203125 
L 29.296875 -13.1875 
L 8.59375 -13.1875 
z
" id="DejaVuSans-5b"/>
     <path d="M 12.40625 8.296875 
L 28.515625 8.296875 
L 28.515625 63.921875 
L 10.984375 60.40625 
L 10.984375 69.390625 
L 28.421875 72.90625 
L 38.28125 72.90625 
L 38.28125 8.296875 
L 54.390625 8.296875 
L 54.390625 0 
L 12.40625 0 
z
" id="DejaVuSans-31"/>
     <path d="M 11.71875 12.40625 
L 22.015625 12.40625 
L 22.015625 4 
L 14.015625 -11.625 
L 7.71875 -11.625 
L 11.71875 4 
z
" id="DejaVuSans-2c"/>
     <path d="M 31.78125 34.625 
Q 24.75 34.625 20.71875 30.859375 
Q 16.703125 27.09375 16.703125 20.515625 
Q 16.703125 13.921875 20.71875 10.15625 
Q 24.75 6.390625 31.78125 6.390625 
Q 38.8125 6.390625 42.859375 10.171875 
Q 46.921875 13.96875 46.921875 20.515625 
Q 46.921875 27.09375 42.890625 30.859375 
Q 38.875 34.625 31.78125 34.625 
z
M 21.921875 38.8125 
Q 15.578125 40.375 12.03125 44.71875 
Q 8.5 49.078125 8.5 55.328125 
Q 8.5 64.0625 14.71875 69.140625 
Q 20.953125 74.21875 31.78125 74.21875 
Q 42.671875 74.21875 48.875 69.140625 
Q 55.078125 64.0625 55.078125 55.328125 
Q 55.078125 49.078125 51.53125 44.71875 
Q 48 40.375 41.703125 38.8125 
Q 48.828125 37.15625 52.796875 32.3125 
Q 56.78125 27.484375 56.78125 20.515625 
Q 56.78125 9.90625 50.3125 4.234375 
Q 43.84375 -1.421875 31.78125 -1.421875 
Q 19.734375 -1.421875 13.25 4.234375 
Q 6.78125 9.90625 6.78125 20.515625 
Q 6.78125 27.484375 10.78125 32.3125 
Q 14.796875 37.15625 21.921875 38.8125 
z
M 18.3125 54.390625 
Q 18.3125 48.734375 21.84375 45.5625 
Q 25.390625 42.390625 31.78125 42.390625 
Q 38.140625 42.390625 41.71875 45.5625 
Q 45.3125 48.734375 45.3125 54.390625 
Q 45.3125 60.0625 41.71875 63.234375 
Q 38.140625 66.40625 31.78125 66.40625 
Q 25.390625 66.40625 21.84375 63.234375 
Q 18.3125 60.0625 18.3125 54.390625 
z
" id="DejaVuSans-38"/>
     <path d="M 30.421875 75.984375 
L 30.421875 -13.1875 
L 9.71875 -13.1875 
L 9.71875 -6.203125 
L 21.390625 -6.203125 
L 21.390625 69 
L 9.71875 69 
L 9.71875 75.984375 
z
" id="DejaVuSans-5d"/>
    </defs>
    <g transform="translate(66.008385 609.560213)scale(0.055096 -0.055096)">
     <use xlink:href="#DejaVuSans-76"/>
     <use x="59.179688" xlink:href="#DejaVuSans-61"/>
     <use x="120.458984" xlink:href="#DejaVuSans-6c"/>
     <use x="148.242188" xlink:href="#DejaVuSans-75"/>
     <use x="211.621094" xlink:href="#DejaVuSans-65"/>
     <use x="273.144531" xlink:href="#DejaVuSans-20"/>
     <use x="304.931641" xlink:href="#DejaVuSans-3d"/>
     <use x="388.720703" xlink:href="#DejaVuSans-20"/>
     <use x="420.507812" xlink:href="#DejaVuSans-5b"/>
     <use x="459.521484" xlink:href="#DejaVuSans-31"/>
     <use x="523.144531" xlink:href="#DejaVuSans-30"/>
     <use x="586.767578" xlink:href="#DejaVuSans-2c"/>
     <use x="618.554688" xlink:href="#DejaVuSans-20"/>
     <use x="650.341797" xlink:href="#DejaVuSans-32"/>
     <use x="713.964844" xlink:href="#DejaVuSans-38"/>
     <use x="777.587891" xlink:href="#DejaVuSans-30"/>
     <use x="841.210938" xlink:href="#DejaVuSans-5d"/>
    </g>
    <!-- class = benign -->
    <defs>
     <path d="M 48.78125 52.59375 
L 48.78125 44.1875 
Q 44.96875 46.296875 41.140625 47.34375 
Q 37.3125 48.390625 33.40625 48.390625 
Q 24.65625 48.390625 19.8125 42.84375 
Q 14.984375 37.3125 14.984375 27.296875 
Q 14.984375 17.28125 19.8125 11.734375 
Q 24.65625 6.203125 33.40625 6.203125 
Q 37.3125 6.203125 41.140625 7.25 
Q 44.96875 8.296875 48.78125 10.40625 
L 48.78125 2.09375 
Q 45.015625 0.34375 40.984375 -0.53125 
Q 36.96875 -1.421875 32.421875 -1.421875 
Q 20.0625 -1.421875 12.78125 6.34375 
Q 5.515625 14.109375 5.515625 27.296875 
Q 5.515625 40.671875 12.859375 48.328125 
Q 20.21875 56 33.015625 56 
Q 37.15625 56 41.109375 55.140625 
Q 45.0625 54.296875 48.78125 52.59375 
z
" id="DejaVuSans-63"/>
     <path d="M 48.6875 27.296875 
Q 48.6875 37.203125 44.609375 42.84375 
Q 40.53125 48.484375 33.40625 48.484375 
Q 26.265625 48.484375 22.1875 42.84375 
Q 18.109375 37.203125 18.109375 27.296875 
Q 18.109375 17.390625 22.1875 11.75 
Q 26.265625 6.109375 33.40625 6.109375 
Q 40.53125 6.109375 44.609375 11.75 
Q 48.6875 17.390625 48.6875 27.296875 
z
M 18.109375 46.390625 
Q 20.953125 51.265625 25.265625 53.625 
Q 29.59375 56 35.59375 56 
Q 45.5625 56 51.78125 48.09375 
Q 58.015625 40.1875 58.015625 27.296875 
Q 58.015625 14.40625 51.78125 6.484375 
Q 45.5625 -1.421875 35.59375 -1.421875 
Q 29.59375 -1.421875 25.265625 0.953125 
Q 20.953125 3.328125 18.109375 8.203125 
L 18.109375 0 
L 9.078125 0 
L 9.078125 75.984375 
L 18.109375 75.984375 
z
" id="DejaVuSans-62"/>
    </defs>
    <g transform="translate(69.909422 615.729732)scale(0.055096 -0.055096)">
     <use xlink:href="#DejaVuSans-63"/>
     <use x="54.980469" xlink:href="#DejaVuSans-6c"/>
     <use x="82.763672" xlink:href="#DejaVuSans-61"/>
     <use x="144.042969" xlink:href="#DejaVuSans-73"/>
     <use x="196.142578" xlink:href="#DejaVuSans-73"/>
     <use x="248.242188" xlink:href="#DejaVuSans-20"/>
     <use x="280.029297" xlink:href="#DejaVuSans-3d"/>
     <use x="363.818359" xlink:href="#DejaVuSans-20"/>
     <use x="395.605469" xlink:href="#DejaVuSans-62"/>
     <use x="459.082031" xlink:href="#DejaVuSans-65"/>
     <use x="520.605469" xlink:href="#DejaVuSans-6e"/>
     <use x="583.984375" xlink:href="#DejaVuSans-69"/>
     <use x="611.767578" xlink:href="#DejaVuSans-67"/>
     <use x="675.244141" xlink:href="#DejaVuSans-6e"/>
    </g>
   </g>
   <g id="patch_4">
    <path d="M 205.114455 587.355232 
Q 178.224015 500.520089 151.002847 412.616948 
" style="fill:none;stroke:#000000;stroke-linecap:round;"/>
    <path d="M 205.515132 584.924072 
L 205.114455 587.355232 
L 203.409933 585.575994 
" style="fill:none;stroke:#000000;stroke-linecap:round;"/>
   </g>
   <g id="text_2">
    <g id="patch_5">
     <path d="M 185.86498 619.079381 
L 235.264347 619.079381 
L 235.264347 590.830929 
L 185.86498 590.830929 
z
" style="fill:#c6e3f8;stroke:#000000;stroke-linejoin:miter;"/>
    </g>
    <!-- gini = 0.486 -->
    <defs>
     <path d="M 37.796875 64.3125 
L 12.890625 25.390625 
L 37.796875 25.390625 
z
M 35.203125 72.90625 
L 47.609375 72.90625 
L 47.609375 25.390625 
L 58.015625 25.390625 
L 58.015625 17.1875 
L 47.609375 17.1875 
L 47.609375 0 
L 37.796875 0 
L 37.796875 17.1875 
L 4.890625 17.1875 
L 4.890625 26.703125 
z
" id="DejaVuSans-34"/>
    </defs>
    <g transform="translate(193.593451 597.221176)scale(0.055096 -0.055096)">
     <use xlink:href="#DejaVuSans-67"/>
     <use x="63.476562" xlink:href="#DejaVuSans-69"/>
     <use x="91.259766" xlink:href="#DejaVuSans-6e"/>
     <use x="154.638672" xlink:href="#DejaVuSans-69"/>
     <use x="182.421875" xlink:href="#DejaVuSans-20"/>
     <use x="214.208984" xlink:href="#DejaVuSans-3d"/>
     <use x="297.998047" xlink:href="#DejaVuSans-20"/>
     <use x="329.785156" xlink:href="#DejaVuSans-30"/>
     <use x="393.408203" xlink:href="#DejaVuSans-2e"/>
     <use x="425.195312" xlink:href="#DejaVuSans-34"/>
     <use x="488.818359" xlink:href="#DejaVuSans-38"/>
     <use x="552.441406" xlink:href="#DejaVuSans-36"/>
    </g>
    <!-- samples = 24 -->
    <g transform="translate(191.548882 603.390694)scale(0.055096 -0.055096)">
     <use xlink:href="#DejaVuSans-73"/>
     <use x="52.099609" xlink:href="#DejaVuSans-61"/>
     <use x="113.378906" xlink:href="#DejaVuSans-6d"/>
     <use x="210.791016" xlink:href="#DejaVuSans-70"/>
     <use x="274.267578" xlink:href="#DejaVuSans-6c"/>
     <use x="302.050781" xlink:href="#DejaVuSans-65"/>
     <use x="363.574219" xlink:href="#DejaVuSans-73"/>
     <use x="415.673828" xlink:href="#DejaVuSans-20"/>
     <use x="447.460938" xlink:href="#DejaVuSans-3d"/>
     <use x="531.25" xlink:href="#DejaVuSans-20"/>
     <use x="563.037109" xlink:href="#DejaVuSans-32"/>
     <use x="626.660156" xlink:href="#DejaVuSans-34"/>
    </g>
    <!-- value = [10, 14] -->
    <g transform="translate(188.06881 609.560213)scale(0.055096 -0.055096)">
     <use xlink:href="#DejaVuSans-76"/>
     <use x="59.179688" xlink:href="#DejaVuSans-61"/>
     <use x="120.458984" xlink:href="#DejaVuSans-6c"/>
     <use x="148.242188" xlink:href="#DejaVuSans-75"/>
     <use x="211.621094" xlink:href="#DejaVuSans-65"/>
     <use x="273.144531" xlink:href="#DejaVuSans-20"/>
     <use x="304.931641" xlink:href="#DejaVuSans-3d"/>
     <use x="388.720703" xlink:href="#DejaVuSans-20"/>
     <use x="420.507812" xlink:href="#DejaVuSans-5b"/>
     <use x="459.521484" xlink:href="#DejaVuSans-31"/>
     <use x="523.144531" xlink:href="#DejaVuSans-30"/>
     <use x="586.767578" xlink:href="#DejaVuSans-2c"/>
     <use x="618.554688" xlink:href="#DejaVuSans-20"/>
     <use x="650.341797" xlink:href="#DejaVuSans-31"/>
     <use x="713.964844" xlink:href="#DejaVuSans-34"/>
     <use x="777.587891" xlink:href="#DejaVuSans-5d"/>
    </g>
    <!-- class = benign -->
    <g transform="translate(190.217114 615.729732)scale(0.055096 -0.055096)">
     <use xlink:href="#DejaVuSans-63"/>
     <use x="54.980469" xlink:href="#DejaVuSans-6c"/>
     <use x="82.763672" xlink:href="#DejaVuSans-61"/>
     <use x="144.042969" xlink:href="#DejaVuSans-73"/>
     <use x="196.142578" xlink:href="#DejaVuSans-73"/>
     <use x="248.242188" xlink:href="#DejaVuSans-20"/>
     <use x="280.029297" xlink:href="#DejaVuSans-3d"/>
     <use x="363.818359" xlink:href="#DejaVuSans-20"/>
     <use x="395.605469" xlink:href="#DejaVuSans-62"/>
     <use x="459.082031" xlink:href="#DejaVuSans-65"/>
     <use x="520.605469" xlink:href="#DejaVuSans-6e"/>
     <use x="583.984375" xlink:href="#DejaVuSans-69"/>
     <use x="611.767578" xlink:href="#DejaVuSans-67"/>
     <use x="675.244141" xlink:href="#DejaVuSans-6e"/>
    </g>
   </g>
   <g id="patch_6">
    <path d="M 336.322565 587.355232 
Q 363.213004 500.520089 390.434173 412.616948 
" style="fill:none;stroke:#000000;stroke-linecap:round;"/>
    <path d="M 338.027086 585.575994 
L 336.322565 587.355232 
L 335.921887 584.924072 
" style="fill:none;stroke:#000000;stroke-linecap:round;"/>
   </g>
   <g id="text_3">
    <g id="patch_7">
     <path d="M 307.925406 619.079381 
L 353.819305 619.079381 
L 353.819305 590.830929 
L 307.925406 590.830929 
z
" style="fill:#75bbed;stroke:#000000;stroke-linejoin:miter;"/>
    </g>
    <!-- gini = 0.358 -->
    <defs>
     <path d="M 40.578125 39.3125 
Q 47.65625 37.796875 51.625 33 
Q 55.609375 28.21875 55.609375 21.1875 
Q 55.609375 10.40625 48.1875 4.484375 
Q 40.765625 -1.421875 27.09375 -1.421875 
Q 22.515625 -1.421875 17.65625 -0.515625 
Q 12.796875 0.390625 7.625 2.203125 
L 7.625 11.71875 
Q 11.71875 9.328125 16.59375 8.109375 
Q 21.484375 6.890625 26.8125 6.890625 
Q 36.078125 6.890625 40.9375 10.546875 
Q 45.796875 14.203125 45.796875 21.1875 
Q 45.796875 27.640625 41.28125 31.265625 
Q 36.765625 34.90625 28.71875 34.90625 
L 20.21875 34.90625 
L 20.21875 43.015625 
L 29.109375 43.015625 
Q 36.375 43.015625 40.234375 45.921875 
Q 44.09375 48.828125 44.09375 54.296875 
Q 44.09375 59.90625 40.109375 62.90625 
Q 36.140625 65.921875 28.71875 65.921875 
Q 24.65625 65.921875 20.015625 65.03125 
Q 15.375 64.15625 9.8125 62.3125 
L 9.8125 71.09375 
Q 15.4375 72.65625 20.34375 73.4375 
Q 25.25 74.21875 29.59375 74.21875 
Q 40.828125 74.21875 47.359375 69.109375 
Q 53.90625 64.015625 53.90625 55.328125 
Q 53.90625 49.265625 50.4375 45.09375 
Q 46.96875 40.921875 40.578125 39.3125 
z
" id="DejaVuSans-33"/>
     <path d="M 10.796875 72.90625 
L 49.515625 72.90625 
L 49.515625 64.59375 
L 19.828125 64.59375 
L 19.828125 46.734375 
Q 21.96875 47.46875 24.109375 47.828125 
Q 26.265625 48.1875 28.421875 48.1875 
Q 40.625 48.1875 47.75 41.5 
Q 54.890625 34.8125 54.890625 23.390625 
Q 54.890625 11.625 47.5625 5.09375 
Q 40.234375 -1.421875 26.90625 -1.421875 
Q 22.3125 -1.421875 17.546875 -0.640625 
Q 12.796875 0.140625 7.71875 1.703125 
L 7.71875 11.625 
Q 12.109375 9.234375 16.796875 8.0625 
Q 21.484375 6.890625 26.703125 6.890625 
Q 35.15625 6.890625 40.078125 11.328125 
Q 45.015625 15.765625 45.015625 23.390625 
Q 45.015625 31 40.078125 35.4375 
Q 35.15625 39.890625 26.703125 39.890625 
Q 22.75 39.890625 18.8125 39.015625 
Q 14.890625 38.140625 10.796875 36.28125 
z
" id="DejaVuSans-35"/>
    </defs>
    <g transform="translate(313.901143 597.221176)scale(0.055096 -0.055096)">
     <use xlink:href="#DejaVuSans-67"/>
     <use x="63.476562" xlink:href="#DejaVuSans-69"/>
     <use x="91.259766" xlink:href="#DejaVuSans-6e"/>
     <use x="154.638672" xlink:href="#DejaVuSans-69"/>
     <use x="182.421875" xlink:href="#DejaVuSans-20"/>
     <use x="214.208984" xlink:href="#DejaVuSans-3d"/>
     <use x="297.998047" xlink:href="#DejaVuSans-20"/>
     <use x="329.785156" xlink:href="#DejaVuSans-30"/>
     <use x="393.408203" xlink:href="#DejaVuSans-2e"/>
     <use x="425.195312" xlink:href="#DejaVuSans-33"/>
     <use x="488.818359" xlink:href="#DejaVuSans-35"/>
     <use x="552.441406" xlink:href="#DejaVuSans-38"/>
    </g>
    <!-- samples = 30 -->
    <g transform="translate(311.856574 603.390694)scale(0.055096 -0.055096)">
     <use xlink:href="#DejaVuSans-73"/>
     <use x="52.099609" xlink:href="#DejaVuSans-61"/>
     <use x="113.378906" xlink:href="#DejaVuSans-6d"/>
     <use x="210.791016" xlink:href="#DejaVuSans-70"/>
     <use x="274.267578" xlink:href="#DejaVuSans-6c"/>
     <use x="302.050781" xlink:href="#DejaVuSans-65"/>
     <use x="363.574219" xlink:href="#DejaVuSans-73"/>
     <use x="415.673828" xlink:href="#DejaVuSans-20"/>
     <use x="447.460938" xlink:href="#DejaVuSans-3d"/>
     <use x="531.25" xlink:href="#DejaVuSans-20"/>
     <use x="563.037109" xlink:href="#DejaVuSans-33"/>
     <use x="626.660156" xlink:href="#DejaVuSans-30"/>
    </g>
    <!-- value = [7, 23] -->
    <g transform="translate(310.129236 609.560213)scale(0.055096 -0.055096)">
     <use xlink:href="#DejaVuSans-76"/>
     <use x="59.179688" xlink:href="#DejaVuSans-61"/>
     <use x="120.458984" xlink:href="#DejaVuSans-6c"/>
     <use x="148.242188" xlink:href="#DejaVuSans-75"/>
     <use x="211.621094" xlink:href="#DejaVuSans-65"/>
     <use x="273.144531" xlink:href="#DejaVuSans-20"/>
     <use x="304.931641" xlink:href="#DejaVuSans-3d"/>
     <use x="388.720703" xlink:href="#DejaVuSans-20"/>
     <use x="420.507812" xlink:href="#DejaVuSans-5b"/>
     <use x="459.521484" xlink:href="#DejaVuSans-37"/>
     <use x="523.144531" xlink:href="#DejaVuSans-2c"/>
     <use x="554.931641" xlink:href="#DejaVuSans-20"/>
     <use x="586.71875" xlink:href="#DejaVuSans-32"/>
     <use x="650.341797" xlink:href="#DejaVuSans-33"/>
     <use x="713.964844" xlink:href="#DejaVuSans-5d"/>
    </g>
    <!-- class = benign -->
    <g transform="translate(310.524807 615.729732)scale(0.055096 -0.055096)">
     <use xlink:href="#DejaVuSans-63"/>
     <use x="54.980469" xlink:href="#DejaVuSans-6c"/>
     <use x="82.763672" xlink:href="#DejaVuSans-61"/>
     <use x="144.042969" xlink:href="#DejaVuSans-73"/>
     <use x="196.142578" xlink:href="#DejaVuSans-73"/>
     <use x="248.242188" xlink:href="#DejaVuSans-20"/>
     <use x="280.029297" xlink:href="#DejaVuSans-3d"/>
     <use x="363.818359" xlink:href="#DejaVuSans-20"/>
     <use x="395.605469" xlink:href="#DejaVuSans-62"/>
     <use x="459.082031" xlink:href="#DejaVuSans-65"/>
     <use x="520.605469" xlink:href="#DejaVuSans-6e"/>
     <use x="583.984375" xlink:href="#DejaVuSans-69"/>
     <use x="611.767578" xlink:href="#DejaVuSans-67"/>
     <use x="675.244141" xlink:href="#DejaVuSans-6e"/>
    </g>
   </g>
   <g id="patch_8">
    <path d="M 445.729839 587.355232 
Q 418.8394 500.520089 391.618231 412.616948 
" style="fill:none;stroke:#000000;stroke-linecap:round;"/>
    <path d="M 446.130517 584.924072 
L 445.729839 587.355232 
L 444.025318 585.575994 
" style="fill:none;stroke:#000000;stroke-linecap:round;"/>
   </g>
   <g id="text_4">
    <g id="patch_9">
     <path d="M 424.167635 619.079381 
L 478.192461 619.079381 
L 478.192461 590.830929 
L 424.167635 590.830929 
z
" style="fill:#e58139;stroke:#000000;stroke-linejoin:miter;"/>
    </g>
    <!-- gini = 0.0 -->
    <g transform="translate(437.714302 597.221176)scale(0.055096 -0.055096)">
     <use xlink:href="#DejaVuSans-67"/>
     <use x="63.476562" xlink:href="#DejaVuSans-69"/>
     <use x="91.259766" xlink:href="#DejaVuSans-6e"/>
     <use x="154.638672" xlink:href="#DejaVuSans-69"/>
     <use x="182.421875" xlink:href="#DejaVuSans-20"/>
     <use x="214.208984" xlink:href="#DejaVuSans-3d"/>
     <use x="297.998047" xlink:href="#DejaVuSans-20"/>
     <use x="329.785156" xlink:href="#DejaVuSans-30"/>
     <use x="393.408203" xlink:href="#DejaVuSans-2e"/>
     <use x="425.195312" xlink:href="#DejaVuSans-30"/>
    </g>
    <!-- samples = 27 -->
    <g transform="translate(432.164266 603.390694)scale(0.055096 -0.055096)">
     <use xlink:href="#DejaVuSans-73"/>
     <use x="52.099609" xlink:href="#DejaVuSans-61"/>
     <use x="113.378906" xlink:href="#DejaVuSans-6d"/>
     <use x="210.791016" xlink:href="#DejaVuSans-70"/>
     <use x="274.267578" xlink:href="#DejaVuSans-6c"/>
     <use x="302.050781" xlink:href="#DejaVuSans-65"/>
     <use x="363.574219" xlink:href="#DejaVuSans-73"/>
     <use x="415.673828" xlink:href="#DejaVuSans-20"/>
     <use x="447.460938" xlink:href="#DejaVuSans-3d"/>
     <use x="531.25" xlink:href="#DejaVuSans-20"/>
     <use x="563.037109" xlink:href="#DejaVuSans-32"/>
     <use x="626.660156" xlink:href="#DejaVuSans-37"/>
    </g>
    <!-- value = [27, 0] -->
    <g transform="translate(430.436929 609.560213)scale(0.055096 -0.055096)">
     <use xlink:href="#DejaVuSans-76"/>
     <use x="59.179688" xlink:href="#DejaVuSans-61"/>
     <use x="120.458984" xlink:href="#DejaVuSans-6c"/>
     <use x="148.242188" xlink:href="#DejaVuSans-75"/>
     <use x="211.621094" xlink:href="#DejaVuSans-65"/>
     <use x="273.144531" xlink:href="#DejaVuSans-20"/>
     <use x="304.931641" xlink:href="#DejaVuSans-3d"/>
     <use x="388.720703" xlink:href="#DejaVuSans-20"/>
     <use x="420.507812" xlink:href="#DejaVuSans-5b"/>
     <use x="459.521484" xlink:href="#DejaVuSans-32"/>
     <use x="523.144531" xlink:href="#DejaVuSans-37"/>
     <use x="586.767578" xlink:href="#DejaVuSans-2c"/>
     <use x="618.554688" xlink:href="#DejaVuSans-20"/>
     <use x="650.341797" xlink:href="#DejaVuSans-30"/>
     <use x="713.964844" xlink:href="#DejaVuSans-5d"/>
    </g>
    <!-- class = malignant -->
    <defs>
     <path d="M 18.3125 70.21875 
L 18.3125 54.6875 
L 36.8125 54.6875 
L 36.8125 47.703125 
L 18.3125 47.703125 
L 18.3125 18.015625 
Q 18.3125 11.328125 20.140625 9.421875 
Q 21.96875 7.515625 27.59375 7.515625 
L 36.8125 7.515625 
L 36.8125 0 
L 27.59375 0 
Q 17.1875 0 13.234375 3.875 
Q 9.28125 7.765625 9.28125 18.015625 
L 9.28125 47.703125 
L 2.6875 47.703125 
L 2.6875 54.6875 
L 9.28125 54.6875 
L 9.28125 70.21875 
z
" id="DejaVuSans-74"/>
    </defs>
    <g transform="translate(426.371465 615.729732)scale(0.055096 -0.055096)">
     <use xlink:href="#DejaVuSans-63"/>
     <use x="54.980469" xlink:href="#DejaVuSans-6c"/>
     <use x="82.763672" xlink:href="#DejaVuSans-61"/>
     <use x="144.042969" xlink:href="#DejaVuSans-73"/>
     <use x="196.142578" xlink:href="#DejaVuSans-73"/>
     <use x="248.242188" xlink:href="#DejaVuSans-20"/>
     <use x="280.029297" xlink:href="#DejaVuSans-3d"/>
     <use x="363.818359" xlink:href="#DejaVuSans-20"/>
     <use x="395.605469" xlink:href="#DejaVuSans-6d"/>
     <use x="493.017578" xlink:href="#DejaVuSans-61"/>
     <use x="554.296875" xlink:href="#DejaVuSans-6c"/>
     <use x="582.080078" xlink:href="#DejaVuSans-69"/>
     <use x="609.863281" xlink:href="#DejaVuSans-67"/>
     <use x="673.339844" xlink:href="#DejaVuSans-6e"/>
     <use x="736.71875" xlink:href="#DejaVuSans-61"/>
     <use x="797.998047" xlink:href="#DejaVuSans-6e"/>
     <use x="861.376953" xlink:href="#DejaVuSans-74"/>
    </g>
   </g>
   <g id="patch_10">
    <path d="M 576.937949 587.355232 
Q 603.828389 500.520089 631.049557 412.616948 
" style="fill:none;stroke:#000000;stroke-linecap:round;"/>
    <path d="M 578.642471 585.575994 
L 576.937949 587.355232 
L 576.537272 584.924072 
" style="fill:none;stroke:#000000;stroke-linecap:round;"/>
   </g>
   <g id="text_5">
    <g id="patch_11">
     <path d="M 548.936361 619.079381 
L 594.03912 619.079381 
L 594.03912 590.830929 
L 548.936361 590.830929 
z
" style="fill:#399de5;stroke:#000000;stroke-linejoin:miter;"/>
    </g>
    <!-- gini = 0.0 -->
    <g transform="translate(558.021995 597.221176)scale(0.055096 -0.055096)">
     <use xlink:href="#DejaVuSans-67"/>
     <use x="63.476562" xlink:href="#DejaVuSans-69"/>
     <use x="91.259766" xlink:href="#DejaVuSans-6e"/>
     <use x="154.638672" xlink:href="#DejaVuSans-69"/>
     <use x="182.421875" xlink:href="#DejaVuSans-20"/>
     <use x="214.208984" xlink:href="#DejaVuSans-3d"/>
     <use x="297.998047" xlink:href="#DejaVuSans-20"/>
     <use x="329.785156" xlink:href="#DejaVuSans-30"/>
     <use x="393.408203" xlink:href="#DejaVuSans-2e"/>
     <use x="425.195312" xlink:href="#DejaVuSans-30"/>
    </g>
    <!-- samples = 2 -->
    <g transform="translate(554.224692 603.390694)scale(0.055096 -0.055096)">
     <use xlink:href="#DejaVuSans-73"/>
     <use x="52.099609" xlink:href="#DejaVuSans-61"/>
     <use x="113.378906" xlink:href="#DejaVuSans-6d"/>
     <use x="210.791016" xlink:href="#DejaVuSans-70"/>
     <use x="274.267578" xlink:href="#DejaVuSans-6c"/>
     <use x="302.050781" xlink:href="#DejaVuSans-65"/>
     <use x="363.574219" xlink:href="#DejaVuSans-73"/>
     <use x="415.673828" xlink:href="#DejaVuSans-20"/>
     <use x="447.460938" xlink:href="#DejaVuSans-3d"/>
     <use x="531.25" xlink:href="#DejaVuSans-20"/>
     <use x="563.037109" xlink:href="#DejaVuSans-32"/>
    </g>
    <!-- value = [0, 2] -->
    <g transform="translate(552.497354 609.560213)scale(0.055096 -0.055096)">
     <use xlink:href="#DejaVuSans-76"/>
     <use x="59.179688" xlink:href="#DejaVuSans-61"/>
     <use x="120.458984" xlink:href="#DejaVuSans-6c"/>
     <use x="148.242188" xlink:href="#DejaVuSans-75"/>
     <use x="211.621094" xlink:href="#DejaVuSans-65"/>
     <use x="273.144531" xlink:href="#DejaVuSans-20"/>
     <use x="304.931641" xlink:href="#DejaVuSans-3d"/>
     <use x="388.720703" xlink:href="#DejaVuSans-20"/>
     <use x="420.507812" xlink:href="#DejaVuSans-5b"/>
     <use x="459.521484" xlink:href="#DejaVuSans-30"/>
     <use x="523.144531" xlink:href="#DejaVuSans-2c"/>
     <use x="554.931641" xlink:href="#DejaVuSans-20"/>
     <use x="586.71875" xlink:href="#DejaVuSans-32"/>
     <use x="650.341797" xlink:href="#DejaVuSans-5d"/>
    </g>
    <!-- class = benign -->
    <g transform="translate(551.140191 615.729732)scale(0.055096 -0.055096)">
     <use xlink:href="#DejaVuSans-63"/>
     <use x="54.980469" xlink:href="#DejaVuSans-6c"/>
     <use x="82.763672" xlink:href="#DejaVuSans-61"/>
     <use x="144.042969" xlink:href="#DejaVuSans-73"/>
     <use x="196.142578" xlink:href="#DejaVuSans-73"/>
     <use x="248.242188" xlink:href="#DejaVuSans-20"/>
     <use x="280.029297" xlink:href="#DejaVuSans-3d"/>
     <use x="363.818359" xlink:href="#DejaVuSans-20"/>
     <use x="395.605469" xlink:href="#DejaVuSans-62"/>
     <use x="459.082031" xlink:href="#DejaVuSans-65"/>
     <use x="520.605469" xlink:href="#DejaVuSans-6e"/>
     <use x="583.984375" xlink:href="#DejaVuSans-69"/>
     <use x="611.767578" xlink:href="#DejaVuSans-67"/>
     <use x="675.244141" xlink:href="#DejaVuSans-6e"/>
    </g>
   </g>
   <g id="patch_12">
    <path d="M 686.345224 587.355232 
Q 659.454784 500.520089 632.233616 412.616948 
" style="fill:none;stroke:#000000;stroke-linecap:round;"/>
    <path d="M 686.745902 584.924072 
L 686.345224 587.355232 
L 684.640702 585.575994 
" style="fill:none;stroke:#000000;stroke-linecap:round;"/>
   </g>
   <g id="text_6">
    <g id="patch_13">
     <path d="M 664.783019 619.079381 
L 718.807846 619.079381 
L 718.807846 590.830929 
L 664.783019 590.830929 
z
" style="fill:#e58139;stroke:#000000;stroke-linejoin:miter;"/>
    </g>
    <!-- gini = 0.0 -->
    <g transform="translate(678.329687 597.221176)scale(0.055096 -0.055096)">
     <use xlink:href="#DejaVuSans-67"/>
     <use x="63.476562" xlink:href="#DejaVuSans-69"/>
     <use x="91.259766" xlink:href="#DejaVuSans-6e"/>
     <use x="154.638672" xlink:href="#DejaVuSans-69"/>
     <use x="182.421875" xlink:href="#DejaVuSans-20"/>
     <use x="214.208984" xlink:href="#DejaVuSans-3d"/>
     <use x="297.998047" xlink:href="#DejaVuSans-20"/>
     <use x="329.785156" xlink:href="#DejaVuSans-30"/>
     <use x="393.408203" xlink:href="#DejaVuSans-2e"/>
     <use x="425.195312" xlink:href="#DejaVuSans-30"/>
    </g>
    <!-- samples = 4 -->
    <g transform="translate(674.532385 603.390694)scale(0.055096 -0.055096)">
     <use xlink:href="#DejaVuSans-73"/>
     <use x="52.099609" xlink:href="#DejaVuSans-61"/>
     <use x="113.378906" xlink:href="#DejaVuSans-6d"/>
     <use x="210.791016" xlink:href="#DejaVuSans-70"/>
     <use x="274.267578" xlink:href="#DejaVuSans-6c"/>
     <use x="302.050781" xlink:href="#DejaVuSans-65"/>
     <use x="363.574219" xlink:href="#DejaVuSans-73"/>
     <use x="415.673828" xlink:href="#DejaVuSans-20"/>
     <use x="447.460938" xlink:href="#DejaVuSans-3d"/>
     <use x="531.25" xlink:href="#DejaVuSans-20"/>
     <use x="563.037109" xlink:href="#DejaVuSans-34"/>
    </g>
    <!-- value = [4, 0] -->
    <g transform="translate(672.805047 609.560213)scale(0.055096 -0.055096)">
     <use xlink:href="#DejaVuSans-76"/>
     <use x="59.179688" xlink:href="#DejaVuSans-61"/>
     <use x="120.458984" xlink:href="#DejaVuSans-6c"/>
     <use x="148.242188" xlink:href="#DejaVuSans-75"/>
     <use x="211.621094" xlink:href="#DejaVuSans-65"/>
     <use x="273.144531" xlink:href="#DejaVuSans-20"/>
     <use x="304.931641" xlink:href="#DejaVuSans-3d"/>
     <use x="388.720703" xlink:href="#DejaVuSans-20"/>
     <use x="420.507812" xlink:href="#DejaVuSans-5b"/>
     <use x="459.521484" xlink:href="#DejaVuSans-34"/>
     <use x="523.144531" xlink:href="#DejaVuSans-2c"/>
     <use x="554.931641" xlink:href="#DejaVuSans-20"/>
     <use x="586.71875" xlink:href="#DejaVuSans-30"/>
     <use x="650.341797" xlink:href="#DejaVuSans-5d"/>
    </g>
    <!-- class = malignant -->
    <g transform="translate(666.986849 615.729732)scale(0.055096 -0.055096)">
     <use xlink:href="#DejaVuSans-63"/>
     <use x="54.980469" xlink:href="#DejaVuSans-6c"/>
     <use x="82.763672" xlink:href="#DejaVuSans-61"/>
     <use x="144.042969" xlink:href="#DejaVuSans-73"/>
     <use x="196.142578" xlink:href="#DejaVuSans-73"/>
     <use x="248.242188" xlink:href="#DejaVuSans-20"/>
     <use x="280.029297" xlink:href="#DejaVuSans-3d"/>
     <use x="363.818359" xlink:href="#DejaVuSans-20"/>
     <use x="395.605469" xlink:href="#DejaVuSans-6d"/>
     <use x="493.017578" xlink:href="#DejaVuSans-61"/>
     <use x="554.296875" xlink:href="#DejaVuSans-6c"/>
     <use x="582.080078" xlink:href="#DejaVuSans-69"/>
     <use x="609.863281" xlink:href="#DejaVuSans-67"/>
     <use x="673.339844" xlink:href="#DejaVuSans-6e"/>
     <use x="736.71875" xlink:href="#DejaVuSans-61"/>
     <use x="797.998047" xlink:href="#DejaVuSans-6e"/>
     <use x="861.376953" xlink:href="#DejaVuSans-74"/>
    </g>
   </g>
   <g id="patch_14">
    <path d="M 163.020857 390.344859 
Q 216.049077 304.724967 269.665983 218.154576 
" style="fill:none;stroke:#000000;stroke-linecap:round;"/>
    <path d="M 165.118051 389.051467 
L 163.020857 390.344859 
L 163.24446 387.891069 
" style="fill:none;stroke:#000000;stroke-linecap:round;"/>
   </g>
   <g id="text_7">
    <g id="patch_15">
     <path d="M 107.03841 427.914141 
L 193.783225 427.914141 
L 193.783225 393.49617 
L 107.03841 393.49617 
z
" style="fill:#46a4e7;stroke:#000000;stroke-linejoin:miter;"/>
    </g>
    <!-- mean compactness &lt;= 0.137 -->
    <defs>
     <path d="M 30.609375 48.390625 
Q 23.390625 48.390625 19.1875 42.75 
Q 14.984375 37.109375 14.984375 27.296875 
Q 14.984375 17.484375 19.15625 11.84375 
Q 23.34375 6.203125 30.609375 6.203125 
Q 37.796875 6.203125 41.984375 11.859375 
Q 46.1875 17.53125 46.1875 27.296875 
Q 46.1875 37.015625 41.984375 42.703125 
Q 37.796875 48.390625 30.609375 48.390625 
z
M 30.609375 56 
Q 42.328125 56 49.015625 48.375 
Q 55.71875 40.765625 55.71875 27.296875 
Q 55.71875 13.875 49.015625 6.21875 
Q 42.328125 -1.421875 30.609375 -1.421875 
Q 18.84375 -1.421875 12.171875 6.21875 
Q 5.515625 13.875 5.515625 27.296875 
Q 5.515625 40.765625 12.171875 48.375 
Q 18.84375 56 30.609375 56 
z
" id="DejaVuSans-6f"/>
     <path d="M 73.1875 49.21875 
L 22.796875 31.296875 
L 73.1875 13.484375 
L 73.1875 4.59375 
L 10.59375 27.296875 
L 10.59375 35.40625 
L 73.1875 58.109375 
z
" id="DejaVuSans-3c"/>
    </defs>
    <g transform="translate(109.24224 399.886416)scale(0.055096 -0.055096)">
     <use xlink:href="#DejaVuSans-6d"/>
     <use x="97.412109" xlink:href="#DejaVuSans-65"/>
     <use x="158.935547" xlink:href="#DejaVuSans-61"/>
     <use x="220.214844" xlink:href="#DejaVuSans-6e"/>
     <use x="283.59375" xlink:href="#DejaVuSans-20"/>
     <use x="315.380859" xlink:href="#DejaVuSans-63"/>
     <use x="370.361328" xlink:href="#DejaVuSans-6f"/>
     <use x="431.542969" xlink:href="#DejaVuSans-6d"/>
     <use x="528.955078" xlink:href="#DejaVuSans-70"/>
     <use x="592.431641" xlink:href="#DejaVuSans-61"/>
     <use x="653.710938" xlink:href="#DejaVuSans-63"/>
     <use x="708.691406" xlink:href="#DejaVuSans-74"/>
     <use x="747.900391" xlink:href="#DejaVuSans-6e"/>
     <use x="811.279297" xlink:href="#DejaVuSans-65"/>
     <use x="872.802734" xlink:href="#DejaVuSans-73"/>
     <use x="924.902344" xlink:href="#DejaVuSans-73"/>
     <use x="977.001953" xlink:href="#DejaVuSans-20"/>
     <use x="1008.789062" xlink:href="#DejaVuSans-3c"/>
     <use x="1092.578125" xlink:href="#DejaVuSans-3d"/>
     <use x="1176.367188" xlink:href="#DejaVuSans-20"/>
     <use x="1208.154297" xlink:href="#DejaVuSans-30"/>
     <use x="1271.777344" xlink:href="#DejaVuSans-2e"/>
     <use x="1303.564453" xlink:href="#DejaVuSans-31"/>
     <use x="1367.1875" xlink:href="#DejaVuSans-33"/>
     <use x="1430.810547" xlink:href="#DejaVuSans-37"/>
    </g>
    <!-- gini = 0.119 -->
    <g transform="translate(133.439605 406.055935)scale(0.055096 -0.055096)">
     <use xlink:href="#DejaVuSans-67"/>
     <use x="63.476562" xlink:href="#DejaVuSans-69"/>
     <use x="91.259766" xlink:href="#DejaVuSans-6e"/>
     <use x="154.638672" xlink:href="#DejaVuSans-69"/>
     <use x="182.421875" xlink:href="#DejaVuSans-20"/>
     <use x="214.208984" xlink:href="#DejaVuSans-3d"/>
     <use x="297.998047" xlink:href="#DejaVuSans-20"/>
     <use x="329.785156" xlink:href="#DejaVuSans-30"/>
     <use x="393.408203" xlink:href="#DejaVuSans-2e"/>
     <use x="425.195312" xlink:href="#DejaVuSans-31"/>
     <use x="488.818359" xlink:href="#DejaVuSans-31"/>
     <use x="552.441406" xlink:href="#DejaVuSans-39"/>
    </g>
    <!-- samples = 314 -->
    <g transform="translate(129.642302 412.225454)scale(0.055096 -0.055096)">
     <use xlink:href="#DejaVuSans-73"/>
     <use x="52.099609" xlink:href="#DejaVuSans-61"/>
     <use x="113.378906" xlink:href="#DejaVuSans-6d"/>
     <use x="210.791016" xlink:href="#DejaVuSans-70"/>
     <use x="274.267578" xlink:href="#DejaVuSans-6c"/>
     <use x="302.050781" xlink:href="#DejaVuSans-65"/>
     <use x="363.574219" xlink:href="#DejaVuSans-73"/>
     <use x="415.673828" xlink:href="#DejaVuSans-20"/>
     <use x="447.460938" xlink:href="#DejaVuSans-3d"/>
     <use x="531.25" xlink:href="#DejaVuSans-20"/>
     <use x="563.037109" xlink:href="#DejaVuSans-33"/>
     <use x="626.660156" xlink:href="#DejaVuSans-31"/>
     <use x="690.283203" xlink:href="#DejaVuSans-34"/>
    </g>
    <!-- value = [20, 294] -->
    <g transform="translate(126.162231 418.394973)scale(0.055096 -0.055096)">
     <use xlink:href="#DejaVuSans-76"/>
     <use x="59.179688" xlink:href="#DejaVuSans-61"/>
     <use x="120.458984" xlink:href="#DejaVuSans-6c"/>
     <use x="148.242188" xlink:href="#DejaVuSans-75"/>
     <use x="211.621094" xlink:href="#DejaVuSans-65"/>
     <use x="273.144531" xlink:href="#DejaVuSans-20"/>
     <use x="304.931641" xlink:href="#DejaVuSans-3d"/>
     <use x="388.720703" xlink:href="#DejaVuSans-20"/>
     <use x="420.507812" xlink:href="#DejaVuSans-5b"/>
     <use x="459.521484" xlink:href="#DejaVuSans-32"/>
     <use x="523.144531" xlink:href="#DejaVuSans-30"/>
     <use x="586.767578" xlink:href="#DejaVuSans-2c"/>
     <use x="618.554688" xlink:href="#DejaVuSans-20"/>
     <use x="650.341797" xlink:href="#DejaVuSans-32"/>
     <use x="713.964844" xlink:href="#DejaVuSans-39"/>
     <use x="777.587891" xlink:href="#DejaVuSans-34"/>
     <use x="841.210938" xlink:href="#DejaVuSans-5d"/>
    </g>
    <!-- class = benign -->
    <g transform="translate(130.063268 424.564491)scale(0.055096 -0.055096)">
     <use xlink:href="#DejaVuSans-63"/>
     <use x="54.980469" xlink:href="#DejaVuSans-6c"/>
     <use x="82.763672" xlink:href="#DejaVuSans-61"/>
     <use x="144.042969" xlink:href="#DejaVuSans-73"/>
     <use x="196.142578" xlink:href="#DejaVuSans-73"/>
     <use x="248.242188" xlink:href="#DejaVuSans-20"/>
     <use x="280.029297" xlink:href="#DejaVuSans-3d"/>
     <use x="363.818359" xlink:href="#DejaVuSans-20"/>
     <use x="395.605469" xlink:href="#DejaVuSans-62"/>
     <use x="459.082031" xlink:href="#DejaVuSans-65"/>
     <use x="520.605469" xlink:href="#DejaVuSans-6e"/>
     <use x="583.984375" xlink:href="#DejaVuSans-69"/>
     <use x="611.767578" xlink:href="#DejaVuSans-67"/>
     <use x="675.244141" xlink:href="#DejaVuSans-6e"/>
    </g>
   </g>
   <g id="patch_16">
    <path d="M 378.416162 390.344859 
Q 325.387942 304.724967 271.771036 218.154576 
" style="fill:none;stroke:#000000;stroke-linecap:round;"/>
    <path d="M 378.192559 387.891069 
L 378.416162 390.344859 
L 376.318968 389.051467 
" style="fill:none;stroke:#000000;stroke-linecap:round;"/>
   </g>
   <g id="text_8">
    <g id="patch_17">
     <path d="M 350.499834 427.914141 
L 431.55257 427.914141 
L 431.55257 393.49617 
L 350.499834 393.49617 
z
" style="fill:#f7d6bf;stroke:#000000;stroke-linejoin:miter;"/>
    </g>
    <!-- mean perimeter &lt;= 89.585 -->
    <defs>
     <path d="M 41.109375 46.296875 
Q 39.59375 47.171875 37.8125 47.578125 
Q 36.03125 48 33.890625 48 
Q 26.265625 48 22.1875 43.046875 
Q 18.109375 38.09375 18.109375 28.8125 
L 18.109375 0 
L 9.078125 0 
L 9.078125 54.6875 
L 18.109375 54.6875 
L 18.109375 46.1875 
Q 20.953125 51.171875 25.484375 53.578125 
Q 30.03125 56 36.53125 56 
Q 37.453125 56 38.578125 55.875 
Q 39.703125 55.765625 41.0625 55.515625 
z
" id="DejaVuSans-72"/>
    </defs>
    <g transform="translate(352.703664 399.886416)scale(0.055096 -0.055096)">
     <use xlink:href="#DejaVuSans-6d"/>
     <use x="97.412109" xlink:href="#DejaVuSans-65"/>
     <use x="158.935547" xlink:href="#DejaVuSans-61"/>
     <use x="220.214844" xlink:href="#DejaVuSans-6e"/>
     <use x="283.59375" xlink:href="#DejaVuSans-20"/>
     <use x="315.380859" xlink:href="#DejaVuSans-70"/>
     <use x="378.857422" xlink:href="#DejaVuSans-65"/>
     <use x="440.380859" xlink:href="#DejaVuSans-72"/>
     <use x="481.494141" xlink:href="#DejaVuSans-69"/>
     <use x="509.277344" xlink:href="#DejaVuSans-6d"/>
     <use x="606.689453" xlink:href="#DejaVuSans-65"/>
     <use x="668.212891" xlink:href="#DejaVuSans-74"/>
     <use x="707.421875" xlink:href="#DejaVuSans-65"/>
     <use x="768.945312" xlink:href="#DejaVuSans-72"/>
     <use x="810.058594" xlink:href="#DejaVuSans-20"/>
     <use x="841.845703" xlink:href="#DejaVuSans-3c"/>
     <use x="925.634766" xlink:href="#DejaVuSans-3d"/>
     <use x="1009.423828" xlink:href="#DejaVuSans-20"/>
     <use x="1041.210938" xlink:href="#DejaVuSans-38"/>
     <use x="1104.833984" xlink:href="#DejaVuSans-39"/>
     <use x="1168.457031" xlink:href="#DejaVuSans-2e"/>
     <use x="1200.244141" xlink:href="#DejaVuSans-35"/>
     <use x="1263.867188" xlink:href="#DejaVuSans-38"/>
     <use x="1327.490234" xlink:href="#DejaVuSans-35"/>
    </g>
    <!-- gini = 0.481 -->
    <g transform="translate(374.054989 406.055935)scale(0.055096 -0.055096)">
     <use xlink:href="#DejaVuSans-67"/>
     <use x="63.476562" xlink:href="#DejaVuSans-69"/>
     <use x="91.259766" xlink:href="#DejaVuSans-6e"/>
     <use x="154.638672" xlink:href="#DejaVuSans-69"/>
     <use x="182.421875" xlink:href="#DejaVuSans-20"/>
     <use x="214.208984" xlink:href="#DejaVuSans-3d"/>
     <use x="297.998047" xlink:href="#DejaVuSans-20"/>
     <use x="329.785156" xlink:href="#DejaVuSans-30"/>
     <use x="393.408203" xlink:href="#DejaVuSans-2e"/>
     <use x="425.195312" xlink:href="#DejaVuSans-34"/>
     <use x="488.818359" xlink:href="#DejaVuSans-38"/>
     <use x="552.441406" xlink:href="#DejaVuSans-31"/>
    </g>
    <!-- samples = 57 -->
    <g transform="translate(372.01042 412.225454)scale(0.055096 -0.055096)">
     <use xlink:href="#DejaVuSans-73"/>
     <use x="52.099609" xlink:href="#DejaVuSans-61"/>
     <use x="113.378906" xlink:href="#DejaVuSans-6d"/>
     <use x="210.791016" xlink:href="#DejaVuSans-70"/>
     <use x="274.267578" xlink:href="#DejaVuSans-6c"/>
     <use x="302.050781" xlink:href="#DejaVuSans-65"/>
     <use x="363.574219" xlink:href="#DejaVuSans-73"/>
     <use x="415.673828" xlink:href="#DejaVuSans-20"/>
     <use x="447.460938" xlink:href="#DejaVuSans-3d"/>
     <use x="531.25" xlink:href="#DejaVuSans-20"/>
     <use x="563.037109" xlink:href="#DejaVuSans-35"/>
     <use x="626.660156" xlink:href="#DejaVuSans-37"/>
    </g>
    <!-- value = [34, 23] -->
    <g transform="translate(368.530349 418.394973)scale(0.055096 -0.055096)">
     <use xlink:href="#DejaVuSans-76"/>
     <use x="59.179688" xlink:href="#DejaVuSans-61"/>
     <use x="120.458984" xlink:href="#DejaVuSans-6c"/>
     <use x="148.242188" xlink:href="#DejaVuSans-75"/>
     <use x="211.621094" xlink:href="#DejaVuSans-65"/>
     <use x="273.144531" xlink:href="#DejaVuSans-20"/>
     <use x="304.931641" xlink:href="#DejaVuSans-3d"/>
     <use x="388.720703" xlink:href="#DejaVuSans-20"/>
     <use x="420.507812" xlink:href="#DejaVuSans-5b"/>
     <use x="459.521484" xlink:href="#DejaVuSans-33"/>
     <use x="523.144531" xlink:href="#DejaVuSans-34"/>
     <use x="586.767578" xlink:href="#DejaVuSans-2c"/>
     <use x="618.554688" xlink:href="#DejaVuSans-20"/>
     <use x="650.341797" xlink:href="#DejaVuSans-32"/>
     <use x="713.964844" xlink:href="#DejaVuSans-33"/>
     <use x="777.587891" xlink:href="#DejaVuSans-5d"/>
    </g>
    <!-- class = malignant -->
    <g transform="translate(366.217619 424.564491)scale(0.055096 -0.055096)">
     <use xlink:href="#DejaVuSans-63"/>
     <use x="54.980469" xlink:href="#DejaVuSans-6c"/>
     <use x="82.763672" xlink:href="#DejaVuSans-61"/>
     <use x="144.042969" xlink:href="#DejaVuSans-73"/>
     <use x="196.142578" xlink:href="#DejaVuSans-73"/>
     <use x="248.242188" xlink:href="#DejaVuSans-20"/>
     <use x="280.029297" xlink:href="#DejaVuSans-3d"/>
     <use x="363.818359" xlink:href="#DejaVuSans-20"/>
     <use x="395.605469" xlink:href="#DejaVuSans-6d"/>
     <use x="493.017578" xlink:href="#DejaVuSans-61"/>
     <use x="554.296875" xlink:href="#DejaVuSans-6c"/>
     <use x="582.080078" xlink:href="#DejaVuSans-69"/>
     <use x="609.863281" xlink:href="#DejaVuSans-67"/>
     <use x="673.339844" xlink:href="#DejaVuSans-6e"/>
     <use x="736.71875" xlink:href="#DejaVuSans-61"/>
     <use x="797.998047" xlink:href="#DejaVuSans-6e"/>
     <use x="861.376953" xlink:href="#DejaVuSans-74"/>
    </g>
   </g>
   <g id="patch_18">
    <path d="M 638.048059 390.017245 
Q 664.460559 304.725474 691.203788 218.365705 
" style="fill:none;stroke:#000000;stroke-linecap:round;"/>
    <path d="M 639.752581 388.238007 
L 638.048059 390.017245 
L 637.647382 387.586085 
" style="fill:none;stroke:#000000;stroke-linecap:round;"/>
   </g>
   <g id="text_9">
    <g id="patch_19">
     <path d="M 588.269179 427.914141 
L 675.013994 427.914141 
L 675.013994 393.49617 
L 588.269179 393.49617 
z
" style="fill:#f2c09c;stroke:#000000;stroke-linejoin:miter;"/>
    </g>
    <!-- mean compactness &lt;= 0.114 -->
    <g transform="translate(590.473009 399.886416)scale(0.055096 -0.055096)">
     <use xlink:href="#DejaVuSans-6d"/>
     <use x="97.412109" xlink:href="#DejaVuSans-65"/>
     <use x="158.935547" xlink:href="#DejaVuSans-61"/>
     <use x="220.214844" xlink:href="#DejaVuSans-6e"/>
     <use x="283.59375" xlink:href="#DejaVuSans-20"/>
     <use x="315.380859" xlink:href="#DejaVuSans-63"/>
     <use x="370.361328" xlink:href="#DejaVuSans-6f"/>
     <use x="431.542969" xlink:href="#DejaVuSans-6d"/>
     <use x="528.955078" xlink:href="#DejaVuSans-70"/>
     <use x="592.431641" xlink:href="#DejaVuSans-61"/>
     <use x="653.710938" xlink:href="#DejaVuSans-63"/>
     <use x="708.691406" xlink:href="#DejaVuSans-74"/>
     <use x="747.900391" xlink:href="#DejaVuSans-6e"/>
     <use x="811.279297" xlink:href="#DejaVuSans-65"/>
     <use x="872.802734" xlink:href="#DejaVuSans-73"/>
     <use x="924.902344" xlink:href="#DejaVuSans-73"/>
     <use x="977.001953" xlink:href="#DejaVuSans-20"/>
     <use x="1008.789062" xlink:href="#DejaVuSans-3c"/>
     <use x="1092.578125" xlink:href="#DejaVuSans-3d"/>
     <use x="1176.367188" xlink:href="#DejaVuSans-20"/>
     <use x="1208.154297" xlink:href="#DejaVuSans-30"/>
     <use x="1271.777344" xlink:href="#DejaVuSans-2e"/>
     <use x="1303.564453" xlink:href="#DejaVuSans-31"/>
     <use x="1367.1875" xlink:href="#DejaVuSans-31"/>
     <use x="1430.810547" xlink:href="#DejaVuSans-34"/>
    </g>
    <!-- gini = 0.444 -->
    <g transform="translate(614.670374 406.055935)scale(0.055096 -0.055096)">
     <use xlink:href="#DejaVuSans-67"/>
     <use x="63.476562" xlink:href="#DejaVuSans-69"/>
     <use x="91.259766" xlink:href="#DejaVuSans-6e"/>
     <use x="154.638672" xlink:href="#DejaVuSans-69"/>
     <use x="182.421875" xlink:href="#DejaVuSans-20"/>
     <use x="214.208984" xlink:href="#DejaVuSans-3d"/>
     <use x="297.998047" xlink:href="#DejaVuSans-20"/>
     <use x="329.785156" xlink:href="#DejaVuSans-30"/>
     <use x="393.408203" xlink:href="#DejaVuSans-2e"/>
     <use x="425.195312" xlink:href="#DejaVuSans-34"/>
     <use x="488.818359" xlink:href="#DejaVuSans-34"/>
     <use x="552.441406" xlink:href="#DejaVuSans-34"/>
    </g>
    <!-- samples = 6 -->
    <g transform="translate(614.378538 412.225454)scale(0.055096 -0.055096)">
     <use xlink:href="#DejaVuSans-73"/>
     <use x="52.099609" xlink:href="#DejaVuSans-61"/>
     <use x="113.378906" xlink:href="#DejaVuSans-6d"/>
     <use x="210.791016" xlink:href="#DejaVuSans-70"/>
     <use x="274.267578" xlink:href="#DejaVuSans-6c"/>
     <use x="302.050781" xlink:href="#DejaVuSans-65"/>
     <use x="363.574219" xlink:href="#DejaVuSans-73"/>
     <use x="415.673828" xlink:href="#DejaVuSans-20"/>
     <use x="447.460938" xlink:href="#DejaVuSans-3d"/>
     <use x="531.25" xlink:href="#DejaVuSans-20"/>
     <use x="563.037109" xlink:href="#DejaVuSans-36"/>
    </g>
    <!-- value = [4, 2] -->
    <g transform="translate(612.651201 418.394973)scale(0.055096 -0.055096)">
     <use xlink:href="#DejaVuSans-76"/>
     <use x="59.179688" xlink:href="#DejaVuSans-61"/>
     <use x="120.458984" xlink:href="#DejaVuSans-6c"/>
     <use x="148.242188" xlink:href="#DejaVuSans-75"/>
     <use x="211.621094" xlink:href="#DejaVuSans-65"/>
     <use x="273.144531" xlink:href="#DejaVuSans-20"/>
     <use x="304.931641" xlink:href="#DejaVuSans-3d"/>
     <use x="388.720703" xlink:href="#DejaVuSans-20"/>
     <use x="420.507812" xlink:href="#DejaVuSans-5b"/>
     <use x="459.521484" xlink:href="#DejaVuSans-34"/>
     <use x="523.144531" xlink:href="#DejaVuSans-2c"/>
     <use x="554.931641" xlink:href="#DejaVuSans-20"/>
     <use x="586.71875" xlink:href="#DejaVuSans-32"/>
     <use x="650.341797" xlink:href="#DejaVuSans-5d"/>
    </g>
    <!-- class = malignant -->
    <g transform="translate(606.833003 424.564491)scale(0.055096 -0.055096)">
     <use xlink:href="#DejaVuSans-63"/>
     <use x="54.980469" xlink:href="#DejaVuSans-6c"/>
     <use x="82.763672" xlink:href="#DejaVuSans-61"/>
     <use x="144.042969" xlink:href="#DejaVuSans-73"/>
     <use x="196.142578" xlink:href="#DejaVuSans-73"/>
     <use x="248.242188" xlink:href="#DejaVuSans-20"/>
     <use x="280.029297" xlink:href="#DejaVuSans-3d"/>
     <use x="363.818359" xlink:href="#DejaVuSans-20"/>
     <use x="395.605469" xlink:href="#DejaVuSans-6d"/>
     <use x="493.017578" xlink:href="#DejaVuSans-61"/>
     <use x="554.296875" xlink:href="#DejaVuSans-6c"/>
     <use x="582.080078" xlink:href="#DejaVuSans-69"/>
     <use x="609.863281" xlink:href="#DejaVuSans-67"/>
     <use x="673.339844" xlink:href="#DejaVuSans-6e"/>
     <use x="736.71875" xlink:href="#DejaVuSans-61"/>
     <use x="797.998047" xlink:href="#DejaVuSans-6e"/>
     <use x="861.376953" xlink:href="#DejaVuSans-74"/>
    </g>
   </g>
   <g id="patch_20">
    <path d="M 746.49907 393.105232 
Q 719.608631 306.270089 692.387462 218.366948 
" style="fill:none;stroke:#000000;stroke-linecap:round;"/>
    <path d="M 746.899748 390.674072 
L 746.49907 393.105232 
L 744.794548 391.325994 
" style="fill:none;stroke:#000000;stroke-linecap:round;"/>
   </g>
   <g id="text_10">
    <g id="patch_21">
     <path d="M 724.936866 424.829381 
L 778.961692 424.829381 
L 778.961692 396.580929 
L 724.936866 396.580929 
z
" style="fill:#e58139;stroke:#000000;stroke-linejoin:miter;"/>
    </g>
    <!-- gini = 0.0 -->
    <g transform="translate(738.483533 402.971176)scale(0.055096 -0.055096)">
     <use xlink:href="#DejaVuSans-67"/>
     <use x="63.476562" xlink:href="#DejaVuSans-69"/>
     <use x="91.259766" xlink:href="#DejaVuSans-6e"/>
     <use x="154.638672" xlink:href="#DejaVuSans-69"/>
     <use x="182.421875" xlink:href="#DejaVuSans-20"/>
     <use x="214.208984" xlink:href="#DejaVuSans-3d"/>
     <use x="297.998047" xlink:href="#DejaVuSans-20"/>
     <use x="329.785156" xlink:href="#DejaVuSans-30"/>
     <use x="393.408203" xlink:href="#DejaVuSans-2e"/>
     <use x="425.195312" xlink:href="#DejaVuSans-30"/>
    </g>
    <!-- samples = 141 -->
    <g transform="translate(731.180764 409.140694)scale(0.055096 -0.055096)">
     <use xlink:href="#DejaVuSans-73"/>
     <use x="52.099609" xlink:href="#DejaVuSans-61"/>
     <use x="113.378906" xlink:href="#DejaVuSans-6d"/>
     <use x="210.791016" xlink:href="#DejaVuSans-70"/>
     <use x="274.267578" xlink:href="#DejaVuSans-6c"/>
     <use x="302.050781" xlink:href="#DejaVuSans-65"/>
     <use x="363.574219" xlink:href="#DejaVuSans-73"/>
     <use x="415.673828" xlink:href="#DejaVuSans-20"/>
     <use x="447.460938" xlink:href="#DejaVuSans-3d"/>
     <use x="531.25" xlink:href="#DejaVuSans-20"/>
     <use x="563.037109" xlink:href="#DejaVuSans-31"/>
     <use x="626.660156" xlink:href="#DejaVuSans-34"/>
     <use x="690.283203" xlink:href="#DejaVuSans-31"/>
    </g>
    <!-- value = [141, 0] -->
    <g transform="translate(729.453426 415.310213)scale(0.055096 -0.055096)">
     <use xlink:href="#DejaVuSans-76"/>
     <use x="59.179688" xlink:href="#DejaVuSans-61"/>
     <use x="120.458984" xlink:href="#DejaVuSans-6c"/>
     <use x="148.242188" xlink:href="#DejaVuSans-75"/>
     <use x="211.621094" xlink:href="#DejaVuSans-65"/>
     <use x="273.144531" xlink:href="#DejaVuSans-20"/>
     <use x="304.931641" xlink:href="#DejaVuSans-3d"/>
     <use x="388.720703" xlink:href="#DejaVuSans-20"/>
     <use x="420.507812" xlink:href="#DejaVuSans-5b"/>
     <use x="459.521484" xlink:href="#DejaVuSans-31"/>
     <use x="523.144531" xlink:href="#DejaVuSans-34"/>
     <use x="586.767578" xlink:href="#DejaVuSans-31"/>
     <use x="650.390625" xlink:href="#DejaVuSans-2c"/>
     <use x="682.177734" xlink:href="#DejaVuSans-20"/>
     <use x="713.964844" xlink:href="#DejaVuSans-30"/>
     <use x="777.587891" xlink:href="#DejaVuSans-5d"/>
    </g>
    <!-- class = malignant -->
    <g transform="translate(727.140696 421.479732)scale(0.055096 -0.055096)">
     <use xlink:href="#DejaVuSans-63"/>
     <use x="54.980469" xlink:href="#DejaVuSans-6c"/>
     <use x="82.763672" xlink:href="#DejaVuSans-61"/>
     <use x="144.042969" xlink:href="#DejaVuSans-73"/>
     <use x="196.142578" xlink:href="#DejaVuSans-73"/>
     <use x="248.242188" xlink:href="#DejaVuSans-20"/>
     <use x="280.029297" xlink:href="#DejaVuSans-3d"/>
     <use x="363.818359" xlink:href="#DejaVuSans-20"/>
     <use x="395.605469" xlink:href="#DejaVuSans-6d"/>
     <use x="493.017578" xlink:href="#DejaVuSans-61"/>
     <use x="554.296875" xlink:href="#DejaVuSans-6c"/>
     <use x="582.080078" xlink:href="#DejaVuSans-69"/>
     <use x="609.863281" xlink:href="#DejaVuSans-67"/>
     <use x="673.339844" xlink:href="#DejaVuSans-6e"/>
     <use x="736.71875" xlink:href="#DejaVuSans-61"/>
     <use x="797.998047" xlink:href="#DejaVuSans-6e"/>
     <use x="861.376953" xlink:href="#DejaVuSans-74"/>
    </g>
   </g>
   <g id="patch_22">
    <path d="M 292.203877 196.632019 
Q 385.585111 110.475293 479.78806 23.560423 
" style="fill:none;stroke:#000000;stroke-linecap:round;"/>
    <path d="M 294.57083 195.947462 
L 292.203877 196.632019 
L 293.076403 194.327722 
" style="fill:none;stroke:#000000;stroke-linecap:round;"/>
   </g>
   <g id="text_11">
    <g id="patch_23">
     <path d="M 235.514908 233.664141 
L 305.922111 233.664141 
L 305.922111 199.24617 
L 235.514908 199.24617 
z
" style="fill:#5baee9;stroke:#000000;stroke-linejoin:miter;"/>
    </g>
    <!-- mean texture &lt;= 21.42 -->
    <defs>
     <path d="M 54.890625 54.6875 
L 35.109375 28.078125 
L 55.90625 0 
L 45.3125 0 
L 29.390625 21.484375 
L 13.484375 0 
L 2.875 0 
L 24.125 28.609375 
L 4.6875 54.6875 
L 15.28125 54.6875 
L 29.78125 35.203125 
L 44.28125 54.6875 
z
" id="DejaVuSans-78"/>
    </defs>
    <g transform="translate(237.718738 205.636416)scale(0.055096 -0.055096)">
     <use xlink:href="#DejaVuSans-6d"/>
     <use x="97.412109" xlink:href="#DejaVuSans-65"/>
     <use x="158.935547" xlink:href="#DejaVuSans-61"/>
     <use x="220.214844" xlink:href="#DejaVuSans-6e"/>
     <use x="283.59375" xlink:href="#DejaVuSans-20"/>
     <use x="315.380859" xlink:href="#DejaVuSans-74"/>
     <use x="354.589844" xlink:href="#DejaVuSans-65"/>
     <use x="416.097656" xlink:href="#DejaVuSans-78"/>
     <use x="475.277344" xlink:href="#DejaVuSans-74"/>
     <use x="514.486328" xlink:href="#DejaVuSans-75"/>
     <use x="577.865234" xlink:href="#DejaVuSans-72"/>
     <use x="618.947266" xlink:href="#DejaVuSans-65"/>
     <use x="680.470703" xlink:href="#DejaVuSans-20"/>
     <use x="712.257812" xlink:href="#DejaVuSans-3c"/>
     <use x="796.046875" xlink:href="#DejaVuSans-3d"/>
     <use x="879.835938" xlink:href="#DejaVuSans-20"/>
     <use x="911.623047" xlink:href="#DejaVuSans-32"/>
     <use x="975.246094" xlink:href="#DejaVuSans-31"/>
     <use x="1038.869141" xlink:href="#DejaVuSans-2e"/>
     <use x="1070.65625" xlink:href="#DejaVuSans-34"/>
     <use x="1134.279297" xlink:href="#DejaVuSans-32"/>
    </g>
    <!-- gini = 0.249 -->
    <g transform="translate(253.747297 211.805935)scale(0.055096 -0.055096)">
     <use xlink:href="#DejaVuSans-67"/>
     <use x="63.476562" xlink:href="#DejaVuSans-69"/>
     <use x="91.259766" xlink:href="#DejaVuSans-6e"/>
     <use x="154.638672" xlink:href="#DejaVuSans-69"/>
     <use x="182.421875" xlink:href="#DejaVuSans-20"/>
     <use x="214.208984" xlink:href="#DejaVuSans-3d"/>
     <use x="297.998047" xlink:href="#DejaVuSans-20"/>
     <use x="329.785156" xlink:href="#DejaVuSans-30"/>
     <use x="393.408203" xlink:href="#DejaVuSans-2e"/>
     <use x="425.195312" xlink:href="#DejaVuSans-32"/>
     <use x="488.818359" xlink:href="#DejaVuSans-34"/>
     <use x="552.441406" xlink:href="#DejaVuSans-39"/>
    </g>
    <!-- samples = 371 -->
    <g transform="translate(249.949994 217.975454)scale(0.055096 -0.055096)">
     <use xlink:href="#DejaVuSans-73"/>
     <use x="52.099609" xlink:href="#DejaVuSans-61"/>
     <use x="113.378906" xlink:href="#DejaVuSans-6d"/>
     <use x="210.791016" xlink:href="#DejaVuSans-70"/>
     <use x="274.267578" xlink:href="#DejaVuSans-6c"/>
     <use x="302.050781" xlink:href="#DejaVuSans-65"/>
     <use x="363.574219" xlink:href="#DejaVuSans-73"/>
     <use x="415.673828" xlink:href="#DejaVuSans-20"/>
     <use x="447.460938" xlink:href="#DejaVuSans-3d"/>
     <use x="531.25" xlink:href="#DejaVuSans-20"/>
     <use x="563.037109" xlink:href="#DejaVuSans-33"/>
     <use x="626.660156" xlink:href="#DejaVuSans-37"/>
     <use x="690.283203" xlink:href="#DejaVuSans-31"/>
    </g>
    <!-- value = [54, 317] -->
    <g transform="translate(246.469923 224.144973)scale(0.055096 -0.055096)">
     <use xlink:href="#DejaVuSans-76"/>
     <use x="59.179688" xlink:href="#DejaVuSans-61"/>
     <use x="120.458984" xlink:href="#DejaVuSans-6c"/>
     <use x="148.242188" xlink:href="#DejaVuSans-75"/>
     <use x="211.621094" xlink:href="#DejaVuSans-65"/>
     <use x="273.144531" xlink:href="#DejaVuSans-20"/>
     <use x="304.931641" xlink:href="#DejaVuSans-3d"/>
     <use x="388.720703" xlink:href="#DejaVuSans-20"/>
     <use x="420.507812" xlink:href="#DejaVuSans-5b"/>
     <use x="459.521484" xlink:href="#DejaVuSans-35"/>
     <use x="523.144531" xlink:href="#DejaVuSans-34"/>
     <use x="586.767578" xlink:href="#DejaVuSans-2c"/>
     <use x="618.554688" xlink:href="#DejaVuSans-20"/>
     <use x="650.341797" xlink:href="#DejaVuSans-33"/>
     <use x="713.964844" xlink:href="#DejaVuSans-31"/>
     <use x="777.587891" xlink:href="#DejaVuSans-37"/>
     <use x="841.210938" xlink:href="#DejaVuSans-5d"/>
    </g>
    <!-- class = benign -->
    <g transform="translate(250.37096 230.314491)scale(0.055096 -0.055096)">
     <use xlink:href="#DejaVuSans-63"/>
     <use x="54.980469" xlink:href="#DejaVuSans-6c"/>
     <use x="82.763672" xlink:href="#DejaVuSans-61"/>
     <use x="144.042969" xlink:href="#DejaVuSans-73"/>
     <use x="196.142578" xlink:href="#DejaVuSans-73"/>
     <use x="248.242188" xlink:href="#DejaVuSans-20"/>
     <use x="280.029297" xlink:href="#DejaVuSans-3d"/>
     <use x="363.818359" xlink:href="#DejaVuSans-20"/>
     <use x="395.605469" xlink:href="#DejaVuSans-62"/>
     <use x="459.082031" xlink:href="#DejaVuSans-65"/>
     <use x="520.605469" xlink:href="#DejaVuSans-6e"/>
     <use x="583.984375" xlink:href="#DejaVuSans-69"/>
     <use x="611.767578" xlink:href="#DejaVuSans-67"/>
     <use x="675.244141" xlink:href="#DejaVuSans-6e"/>
    </g>
   </g>
   <g id="patch_24">
    <path d="M 670.310065 196.632019 
Q 576.928832 110.475293 482.725882 23.560423 
" style="fill:none;stroke:#000000;stroke-linecap:round;"/>
    <path d="M 669.437539 194.327722 
L 670.310065 196.632019 
L 667.943112 195.947462 
" style="fill:none;stroke:#000000;stroke-linecap:round;"/>
   </g>
   <g id="text_12">
    <g id="patch_25">
     <path d="M 654.839097 233.664141 
L 728.751768 233.664141 
L 728.751768 199.24617 
L 654.839097 199.24617 
z
" style="fill:#e5833c;stroke:#000000;stroke-linejoin:miter;"/>
    </g>
    <!-- mean texture &lt;= 14.955 -->
    <g transform="translate(657.042927 205.636416)scale(0.055096 -0.055096)">
     <use xlink:href="#DejaVuSans-6d"/>
     <use x="97.412109" xlink:href="#DejaVuSans-65"/>
     <use x="158.935547" xlink:href="#DejaVuSans-61"/>
     <use x="220.214844" xlink:href="#DejaVuSans-6e"/>
     <use x="283.59375" xlink:href="#DejaVuSans-20"/>
     <use x="315.380859" xlink:href="#DejaVuSans-74"/>
     <use x="354.589844" xlink:href="#DejaVuSans-65"/>
     <use x="416.097656" xlink:href="#DejaVuSans-78"/>
     <use x="475.277344" xlink:href="#DejaVuSans-74"/>
     <use x="514.486328" xlink:href="#DejaVuSans-75"/>
     <use x="577.865234" xlink:href="#DejaVuSans-72"/>
     <use x="618.947266" xlink:href="#DejaVuSans-65"/>
     <use x="680.470703" xlink:href="#DejaVuSans-20"/>
     <use x="712.257812" xlink:href="#DejaVuSans-3c"/>
     <use x="796.046875" xlink:href="#DejaVuSans-3d"/>
     <use x="879.835938" xlink:href="#DejaVuSans-20"/>
     <use x="911.623047" xlink:href="#DejaVuSans-31"/>
     <use x="975.246094" xlink:href="#DejaVuSans-34"/>
     <use x="1038.869141" xlink:href="#DejaVuSans-2e"/>
     <use x="1070.65625" xlink:href="#DejaVuSans-39"/>
     <use x="1134.279297" xlink:href="#DejaVuSans-35"/>
     <use x="1197.902344" xlink:href="#DejaVuSans-35"/>
    </g>
    <!-- gini = 0.027 -->
    <g transform="translate(674.82422 211.805935)scale(0.055096 -0.055096)">
     <use xlink:href="#DejaVuSans-67"/>
     <use x="63.476562" xlink:href="#DejaVuSans-69"/>
     <use x="91.259766" xlink:href="#DejaVuSans-6e"/>
     <use x="154.638672" xlink:href="#DejaVuSans-69"/>
     <use x="182.421875" xlink:href="#DejaVuSans-20"/>
     <use x="214.208984" xlink:href="#DejaVuSans-3d"/>
     <use x="297.998047" xlink:href="#DejaVuSans-20"/>
     <use x="329.785156" xlink:href="#DejaVuSans-30"/>
     <use x="393.408203" xlink:href="#DejaVuSans-2e"/>
     <use x="425.195312" xlink:href="#DejaVuSans-30"/>
     <use x="488.818359" xlink:href="#DejaVuSans-32"/>
     <use x="552.441406" xlink:href="#DejaVuSans-37"/>
    </g>
    <!-- samples = 147 -->
    <g transform="translate(671.026917 217.975454)scale(0.055096 -0.055096)">
     <use xlink:href="#DejaVuSans-73"/>
     <use x="52.099609" xlink:href="#DejaVuSans-61"/>
     <use x="113.378906" xlink:href="#DejaVuSans-6d"/>
     <use x="210.791016" xlink:href="#DejaVuSans-70"/>
     <use x="274.267578" xlink:href="#DejaVuSans-6c"/>
     <use x="302.050781" xlink:href="#DejaVuSans-65"/>
     <use x="363.574219" xlink:href="#DejaVuSans-73"/>
     <use x="415.673828" xlink:href="#DejaVuSans-20"/>
     <use x="447.460938" xlink:href="#DejaVuSans-3d"/>
     <use x="531.25" xlink:href="#DejaVuSans-20"/>
     <use x="563.037109" xlink:href="#DejaVuSans-31"/>
     <use x="626.660156" xlink:href="#DejaVuSans-34"/>
     <use x="690.283203" xlink:href="#DejaVuSans-37"/>
    </g>
    <!-- value = [145, 2] -->
    <g transform="translate(669.29958 224.144973)scale(0.055096 -0.055096)">
     <use xlink:href="#DejaVuSans-76"/>
     <use x="59.179688" xlink:href="#DejaVuSans-61"/>
     <use x="120.458984" xlink:href="#DejaVuSans-6c"/>
     <use x="148.242188" xlink:href="#DejaVuSans-75"/>
     <use x="211.621094" xlink:href="#DejaVuSans-65"/>
     <use x="273.144531" xlink:href="#DejaVuSans-20"/>
     <use x="304.931641" xlink:href="#DejaVuSans-3d"/>
     <use x="388.720703" xlink:href="#DejaVuSans-20"/>
     <use x="420.507812" xlink:href="#DejaVuSans-5b"/>
     <use x="459.521484" xlink:href="#DejaVuSans-31"/>
     <use x="523.144531" xlink:href="#DejaVuSans-34"/>
     <use x="586.767578" xlink:href="#DejaVuSans-35"/>
     <use x="650.390625" xlink:href="#DejaVuSans-2c"/>
     <use x="682.177734" xlink:href="#DejaVuSans-20"/>
     <use x="713.964844" xlink:href="#DejaVuSans-32"/>
     <use x="777.587891" xlink:href="#DejaVuSans-5d"/>
    </g>
    <!-- class = malignant -->
    <g transform="translate(666.986849 230.314491)scale(0.055096 -0.055096)">
     <use xlink:href="#DejaVuSans-63"/>
     <use x="54.980469" xlink:href="#DejaVuSans-6c"/>
     <use x="82.763672" xlink:href="#DejaVuSans-61"/>
     <use x="144.042969" xlink:href="#DejaVuSans-73"/>
     <use x="196.142578" xlink:href="#DejaVuSans-73"/>
     <use x="248.242188" xlink:href="#DejaVuSans-20"/>
     <use x="280.029297" xlink:href="#DejaVuSans-3d"/>
     <use x="363.818359" xlink:href="#DejaVuSans-20"/>
     <use x="395.605469" xlink:href="#DejaVuSans-6d"/>
     <use x="493.017578" xlink:href="#DejaVuSans-61"/>
     <use x="554.296875" xlink:href="#DejaVuSans-6c"/>
     <use x="582.080078" xlink:href="#DejaVuSans-69"/>
     <use x="609.863281" xlink:href="#DejaVuSans-67"/>
     <use x="673.339844" xlink:href="#DejaVuSans-6e"/>
     <use x="736.71875" xlink:href="#DejaVuSans-61"/>
     <use x="797.998047" xlink:href="#DejaVuSans-6e"/>
     <use x="861.376953" xlink:href="#DejaVuSans-74"/>
    </g>
   </g>
   <g id="patch_26">
    <path d="M 481.256971 22.205155 
Q 481.256971 22.205155 481.256971 22.205155 
" style="fill:none;stroke:#000000;stroke-linecap:round;"/>
   </g>
   <g id="text_13">
    <g id="patch_27">
     <path d="M 442.483337 39.414141 
L 520.030605 39.414141 
L 520.030605 4.99617 
L 442.483337 4.99617 
z
" style="fill:#b5daf5;stroke:#000000;stroke-linejoin:miter;"/>
    </g>
    <!-- mean perimeter &lt;= 100.1 -->
    <g transform="translate(444.687167 11.386416)scale(0.055096 -0.055096)">
     <use xlink:href="#DejaVuSans-6d"/>
     <use x="97.412109" xlink:href="#DejaVuSans-65"/>
     <use x="158.935547" xlink:href="#DejaVuSans-61"/>
     <use x="220.214844" xlink:href="#DejaVuSans-6e"/>
     <use x="283.59375" xlink:href="#DejaVuSans-20"/>
     <use x="315.380859" xlink:href="#DejaVuSans-70"/>
     <use x="378.857422" xlink:href="#DejaVuSans-65"/>
     <use x="440.380859" xlink:href="#DejaVuSans-72"/>
     <use x="481.494141" xlink:href="#DejaVuSans-69"/>
     <use x="509.277344" xlink:href="#DejaVuSans-6d"/>
     <use x="606.689453" xlink:href="#DejaVuSans-65"/>
     <use x="668.212891" xlink:href="#DejaVuSans-74"/>
     <use x="707.421875" xlink:href="#DejaVuSans-65"/>
     <use x="768.945312" xlink:href="#DejaVuSans-72"/>
     <use x="810.058594" xlink:href="#DejaVuSans-20"/>
     <use x="841.845703" xlink:href="#DejaVuSans-3c"/>
     <use x="925.634766" xlink:href="#DejaVuSans-3d"/>
     <use x="1009.423828" xlink:href="#DejaVuSans-20"/>
     <use x="1041.210938" xlink:href="#DejaVuSans-31"/>
     <use x="1104.833984" xlink:href="#DejaVuSans-30"/>
     <use x="1168.457031" xlink:href="#DejaVuSans-30"/>
     <use x="1232.080078" xlink:href="#DejaVuSans-2e"/>
     <use x="1263.867188" xlink:href="#DejaVuSans-31"/>
    </g>
    <!-- gini = 0.473 -->
    <g transform="translate(464.285758 17.555935)scale(0.055096 -0.055096)">
     <use xlink:href="#DejaVuSans-67"/>
     <use x="63.476562" xlink:href="#DejaVuSans-69"/>
     <use x="91.259766" xlink:href="#DejaVuSans-6e"/>
     <use x="154.638672" xlink:href="#DejaVuSans-69"/>
     <use x="182.421875" xlink:href="#DejaVuSans-20"/>
     <use x="214.208984" xlink:href="#DejaVuSans-3d"/>
     <use x="297.998047" xlink:href="#DejaVuSans-20"/>
     <use x="329.785156" xlink:href="#DejaVuSans-30"/>
     <use x="393.408203" xlink:href="#DejaVuSans-2e"/>
     <use x="425.195312" xlink:href="#DejaVuSans-34"/>
     <use x="488.818359" xlink:href="#DejaVuSans-37"/>
     <use x="552.441406" xlink:href="#DejaVuSans-33"/>
    </g>
    <!-- samples = 518 -->
    <g transform="translate(460.488456 23.725454)scale(0.055096 -0.055096)">
     <use xlink:href="#DejaVuSans-73"/>
     <use x="52.099609" xlink:href="#DejaVuSans-61"/>
     <use x="113.378906" xlink:href="#DejaVuSans-6d"/>
     <use x="210.791016" xlink:href="#DejaVuSans-70"/>
     <use x="274.267578" xlink:href="#DejaVuSans-6c"/>
     <use x="302.050781" xlink:href="#DejaVuSans-65"/>
     <use x="363.574219" xlink:href="#DejaVuSans-73"/>
     <use x="415.673828" xlink:href="#DejaVuSans-20"/>
     <use x="447.460938" xlink:href="#DejaVuSans-3d"/>
     <use x="531.25" xlink:href="#DejaVuSans-20"/>
     <use x="563.037109" xlink:href="#DejaVuSans-35"/>
     <use x="626.660156" xlink:href="#DejaVuSans-31"/>
     <use x="690.283203" xlink:href="#DejaVuSans-38"/>
    </g>
    <!-- value = [199, 319] -->
    <g transform="translate(455.255651 29.894973)scale(0.055096 -0.055096)">
     <use xlink:href="#DejaVuSans-76"/>
     <use x="59.179688" xlink:href="#DejaVuSans-61"/>
     <use x="120.458984" xlink:href="#DejaVuSans-6c"/>
     <use x="148.242188" xlink:href="#DejaVuSans-75"/>
     <use x="211.621094" xlink:href="#DejaVuSans-65"/>
     <use x="273.144531" xlink:href="#DejaVuSans-20"/>
     <use x="304.931641" xlink:href="#DejaVuSans-3d"/>
     <use x="388.720703" xlink:href="#DejaVuSans-20"/>
     <use x="420.507812" xlink:href="#DejaVuSans-5b"/>
     <use x="459.521484" xlink:href="#DejaVuSans-31"/>
     <use x="523.144531" xlink:href="#DejaVuSans-39"/>
     <use x="586.767578" xlink:href="#DejaVuSans-39"/>
     <use x="650.390625" xlink:href="#DejaVuSans-2c"/>
     <use x="682.177734" xlink:href="#DejaVuSans-20"/>
     <use x="713.964844" xlink:href="#DejaVuSans-33"/>
     <use x="777.587891" xlink:href="#DejaVuSans-31"/>
     <use x="841.210938" xlink:href="#DejaVuSans-39"/>
     <use x="904.833984" xlink:href="#DejaVuSans-5d"/>
    </g>
    <!-- class = benign -->
    <g transform="translate(460.909422 36.064491)scale(0.055096 -0.055096)">
     <use xlink:href="#DejaVuSans-63"/>
     <use x="54.980469" xlink:href="#DejaVuSans-6c"/>
     <use x="82.763672" xlink:href="#DejaVuSans-61"/>
     <use x="144.042969" xlink:href="#DejaVuSans-73"/>
     <use x="196.142578" xlink:href="#DejaVuSans-73"/>
     <use x="248.242188" xlink:href="#DejaVuSans-20"/>
     <use x="280.029297" xlink:href="#DejaVuSans-3d"/>
     <use x="363.818359" xlink:href="#DejaVuSans-20"/>
     <use x="395.605469" xlink:href="#DejaVuSans-62"/>
     <use x="459.082031" xlink:href="#DejaVuSans-65"/>
     <use x="520.605469" xlink:href="#DejaVuSans-6e"/>
     <use x="583.984375" xlink:href="#DejaVuSans-69"/>
     <use x="611.767578" xlink:href="#DejaVuSans-67"/>
     <use x="675.244141" xlink:href="#DejaVuSans-6e"/>
    </g>
   </g>
  </g>
 </g>
</svg>
